<svg xmlns="http://www.w3.org/2000/svg" viewBox="0 0 400 400"><g fill="none" stroke-width="2"><path stroke="#c39bc4" d="m52.19 117.88-4.94-.01a1.23.45-71.7 0 0-.71.89l-9.02 23.5a.79.52-70 0 0 .22.94q2.57.8 4.99-.13a1.06.02-70.5 0 0 .37-.99l1.46-4.01a1.04.84 7.7 0 1 .94-.57H54a1.05.85-8.2 0 1 .94.56l1.59 4.18a1.05.14 69.7 0 0 .46.86l3.25.47q2.53.37 1.4-2.49l-9.01-22.63a.78.26 71.2 0 0-.44-.57" vector-effect="non-scaling-stroke"/><path stroke="#f8a6ae" d="M140.32 125.63q-4.27-2.51-7.95.76-1.21 1.08-1.2-.39l.05-7.25a.75.72 90 0 0-.72-.75h-3.75a.75.5-90 0 0-.5.75v23.75a.96.43 89.8 0 0 .44.97l4.06-.09a.88.53 89.7 0 0 .52-.88c-.04-4.07-2-14.89 4.82-13.97q2.14.29 2.15 2.48l.02 11.74a.5.5.6 0 0 .49.5l3.5.01a.83.53 90 0 0 .53-.83l-.06-12.67q-.02-2.73-2.4-4.13" vector-effect="non-scaling-stroke"/><path stroke="#d893b4" d="M70.74 142.06c16.01 9.06 16.25-25.22-.02-15.64a.8.49-32.5 0 1-.9.01l-.75-.99a1.79 1.31-1.7 0 0-.83-.57q-3.25-1.09-3.01 2.61.29 4.46-.11 22.2a.63.4-88.3 0 0 .38.64l4.06.16a.73.27-89.1 0 0 .28-.73l.16-7.56a.54.33 21.8 0 1 .74-.13" vector-effect="non-scaling-stroke"/><path stroke="#ee8eaa" d="M95.96 131.59c-2.94.92-7.61 1.41-9.31 3.83-1.57 2.25-1.18 5.04.89 6.89 2.95 2.64 6.44.53 9.48-.05a1.51 1.13 50.2 0 1 .98.23q1.72 1.08 3.75 1.02a.51.5 86.2 0 0 .48-.56q-.53-6.38-.55-12.74c-.03-6.66-9.2-6.51-13.1-4.12-1.71 1.05-3.07 3.28-.3 4.32a1.38 1.17-43.4 0 0 .94-.05c1.4-.6 8.64-4.74 7.35.6a.93.84-3.7 0 1-.61.63" vector-effect="non-scaling-stroke"/><path stroke="#f38da8" d="M121.73 137.05q-3.1-1.69-4.51 1.11a1.8.78-73.4 0 1-.67.8c-6.32 3.32-6.51-5.86-4.76-9.15q1.51-2.83 3.41-1.3c1.72 1.37 3.78 3.62 6.11 2.23a.95.9 76.8 0 0 .45-.77c.16-5.01-6.82-6.3-10.24-5.02-6.57 2.45-7.91 11.81-2.99 16.42 3.81 3.58 11.56 2.92 13.86-2.63a1.4 1.31 25.6 0 0-.66-1.69" vector-effect="non-scaling-stroke"/><path stroke="#f8d0af" d="M161.67 137.87q-2.34-1.15-3.14 1.12a1.51.6-17 0 1-.86.69q-5.29 2.28-5.85-3.18a1.13.96 86.5 0 1 .93-1.25h10a.86.85-2.2 0 0 .86-.91q-.83-10.35-10.18-9.15c-9.28 1.2-9.49 19.82 3.37 18.17q3.34-.42 5.42-3.47a1.4 1.37 30.4 0 0-.55-2.02" vector-effect="non-scaling-stroke"/><path stroke="#ab92b1" d="M112.97 181.65c1.28.84 9.69 37.35 10.69 41.68a.62.54-5.8 0 0 .59.42h14a.66.63-83.8 0 0 .62-.52c1.17-5.11 9.73-40.9 10.89-41.41a.39.19 85.4 0 1 .25.43l-.4 40.75a.74.64-89.6 0 0 .64.75H164a.76.42-89.4 0 0 .43-.75l.26-67.25a.94.87 0 0 0-.94-.87l-20-.01a1.79 1.17 4.3 0 0-1.65.91l-10.79 41.17q-.08.32-.13.15l-10.93-41.85a.82.38-2.6 0 0-.75-.31l-21.25-.05a.36.29 90 0 0-.29.36l.04 67.5a1.01.75 90 0 0 .75 1.01l13.94-.02a.51.47 88.8 0 0 .47-.53c-.57-13.76-.35-27.47-.59-41.24q-.01-.59.4-.32" vector-effect="non-scaling-stroke"/><path stroke="#c39bc4" d="M69.27 219.01c-8.39 4.3-13.96-2.99-12.96-10.79a1.41 1.34.2 0 0-1.56-1.49l-15.26 1.73a.61.59 89 0 0-.53.57c-1.48 19.81 12.62 29.61 30.77 26.75 18.47-2.91 20.98-17.52 21-33.28q.03-23.09.01-46.21a1.29 1.23 90 0 0-1.23-1.29H73.25a.76.75 0 0 0-.76.75q.05 25.22-.25 50.43c-.03 3.06.04 11.28-2.97 12.83" vector-effect="non-scaling-stroke"/><path stroke="#d893b4" d="M230.29 218.75q.61 1.16.67 2.44a.58.57-5.6 0 1-.49.59c-3.43.56-7.16.11-10.19 1.23q-3.18 1.17-6.01 3.07" vector-effect="non-scaling-stroke"/><path stroke="#d496b3" d="M214.27 226.08q-9.82.63-19.47 2.32c-10.33 1.8-21.46 1.48-31.82 1.5q-.48 0-.92.25c-3.17 1.76-7.12 2.13-10.22 2.97-3.6.99-7.54.01-10.67 2.18a1.67 1.62 26.1 0 1-.92.3q-3.6.06-7.11.73c-5.97 1.15-11.55 1.08-17.39 2.96" vector-effect="non-scaling-stroke"/><path stroke="#d893b4" d="M115.75 239.29q-5.97-.48-10.54 3.59" vector-effect="non-scaling-stroke"/><path stroke="#e6c2b7" d="M105.21 242.88c-7.26 2.56-14.53 2.13-22 2.52-4.62.24-7.88-1.52-12.46 1.81" vector-effect="non-scaling-stroke"/><path stroke="#e790ad" d="M70.75 247.21c-8.84-.31-20.62 6.95-27.72 10.32-3.1 1.47-4.38 3.62-5.73 6.54a1.56 1.55 52.4 0 0-.12.94c1.12 6.13 6.46 7.93 12.35 7.97a1.79 1.3 55.8 0 1 .89.32l2.43 1.72" vector-effect="non-scaling-stroke"/><path stroke="#e3d8b8" d="m52.85 275.02 4.02 1.95q.7.34.88.33l4.26-.19q.52-.03.96.2l3.21 1.6a1.48.67-28.2 0 0 1.05-.07q2.66-.96 5.29 1.04" vector-effect="non-scaling-stroke"/><path stroke="#e6c2b7" d="M72.52 279.88q12.77-1.53 25.5.02a1.86 1.77 66.2 0 1 .89.37c4.04 3.06 7.48 3.1 13.34 2.69" vector-effect="non-scaling-stroke"/><path stroke="#ebb8b1" d="M112.25 282.96q12.86.07 25.44 2.49c4.35.84 9.17.22 13.58-.16q2.86-.24 5.4 1.57" vector-effect="non-scaling-stroke"/><path stroke="#ee8eaa" d="M156.67 286.86c6.69.14 12.69-2.05 19.08-1.82" vector-effect="non-scaling-stroke"/><path stroke="#e9e9e9" d="M175.75 285.04q3.36 1.24 6.79.21" vector-effect="non-scaling-stroke"/><path stroke="#e6c2b7" d="M182.54 285.25c3.57.22 6.7-.84 10.25-.34 6.09.86 13.67-.32 18.96-1.03 4.76-.64 9.54 1.6 14.08.73q9.19-1.76 15.91-1.54 2.83.1 5.41-.5 7.06-1.64 14.36-1.33c3.74.16 7.48-1.72 11.34-2.1 2.61-.25 4.6-1.43 7.1-2 5.06-1.17 9.17-2.95 13.82-4.61 2.7-.97 6.2-.77 9.07-2.68 2.11-1.4 3.23-1.36 5.46-.62a1.11 1.06 38 0 0 .9-.09l5.59-3.39" vector-effect="non-scaling-stroke"/><path stroke="#ebb8b1" d="M314.79 265.75q5.04-.78 7.91-4.86a1.84 1.77-83.4 0 1 .74-.61c4.89-2.06 8.55-5.03 6.89-10.63" vector-effect="non-scaling-stroke"/><path stroke="#ee8eaa" d="M330.33 249.65q-.4-4.78-2.87-9.15" vector-effect="non-scaling-stroke"/><path stroke="#be9cc5" d="M327.46 240.5q-1.07-1.47-.96-3.21" vector-effect="non-scaling-stroke"/><path stroke="#91908f" d="m326.5 237.29 2.53-.52" vector-effect="non-scaling-stroke"/><path stroke="#bec3c9" d="M329.03 236.77q6.57 9.03 8.31 20.66.12.82.81.61a1.2.53-79.1 0 0 .55-.8l1.79-5.74q.12-.41.02-1-.15-.92.21-1.76a.82.45 32.1 0 1 1.01.06q3.82 2.7 5.21 7.22.6 1.95 1.79.23 1.62-2.37 1.2-5.18-.05-.34-.48-.93-.64-.86-.06-1.95" vector-effect="non-scaling-stroke"/><path stroke="#caced2" d="M349.39 248.19c1.71.02 1.43 3.49 5.11 1.52" vector-effect="non-scaling-stroke"/><path stroke="#f3f3f5" d="m354.5 249.71 1.5-.25" vector-effect="non-scaling-stroke"/><path stroke="#caced2" d="M356 249.46c3.17 1.98 2.35-1.38 1.66-2.61q-1.68-3.03-4.31-5.33c-1.23-1.08-4.62-1.85-1.35-4.23" vector-effect="non-scaling-stroke"/><path stroke="#bec3c9" d="M352 237.29c2.63-1.09.18-1.86-.85-1.68q-6.65 1.16-13.15-.82" vector-effect="non-scaling-stroke"/><path stroke="#a7a6a6" d="m338 234.79-.75-.75" vector-effect="non-scaling-stroke"/><path stroke="#91908f" d="M337.25 234.04q21.61-6.33 40.54-18.48 2.47-1.59 6.64-5.61c2.31-2.22-.18-1.89-1.21-1.48q-24.08 9.46-48.5 18.25" vector-effect="non-scaling-stroke"/><path stroke="#bec3c9" d="M334.72 226.72q2.98-5.15 8.1-7.89 1.6-.86 1.16-2.58" vector-effect="non-scaling-stroke"/><path stroke="#caced2" d="M343.98 216.25q.85-5.78.28-9.25-.35-2.07-2.48-2.22a.7.43 2.9 0 0-.75.41l.09 3.81a1.05.33 84.6 0 1-.18.84c-2.22 1.95-1.9-.86-2.42-1.92q-1.45-2.99-2.58-6.09c-.25-.68-1.73-2.24-1.9-.52-.09.94.69 2.18.76 3.25a1.09 1.04-24.3 0 1-.34.84q-4.28 4.09-7.17-1.15" vector-effect="non-scaling-stroke"/><path stroke="#b29ac2" d="M327.29 204.25q-.83-8.54 2.33-16.41a1.41 1.37 87.8 0 1 .61-.68q5.35-2.88 9.75 1.11a.74.7-60.3 0 0 1.15-.35l4.26-12.46a.63.48 24.4 0 0-.34-.64c-6.44-3.4-13.94-4.11-18.53 2.56q-.37.55-.44-.14l-.38-3.57a.99.46-1.2 0 0-.95-.42H312.5a.56.48 90 0 0-.48.56l-.02 32.65" vector-effect="non-scaling-stroke"/><path stroke="#d893b4" d="m312 206.46-5.76 1.42a1.89 1.86-43.3 0 1-.97-.02l-2.77-.82" vector-effect="non-scaling-stroke"/><path stroke="#ab92b1" d="M302.5 207.04q-6.45 1.12-12.93-.84a1.66 1.62-71.8 0 0-2.01 1.05l-.92 2.6a1.16.77-.8 0 1-.85.58c-2.8.52-7.1 2.13-9.65.73q-3.9-2.13-4.04-7.18a.45.4 88.6 0 1 .4-.47l30.25-.08a.63.61 1.4 0 0 .63-.58c.69-14.44-5.29-29.33-21.58-30.49-23.45-1.67-29.69 22.78-22.75 40.33a1.56 1.55 72.9 0 1-1.09 2.09l-2.96.68" vector-effect="non-scaling-stroke"/><path stroke="#d893b4" d="m255 215.46-1.95.34" vector-effect="non-scaling-stroke"/><path stroke="#ab92b1" d="M253.05 215.8q-.6-.78-.51-4.34a1.02.92-6.5 0 0-1.26-.9l-5.75 1.36a1.26 1.08 79.4 0 1-1.35-1.09c-1.19-7.77-.33-16.58-.57-24.52a.56.39 89.1 0 1 .39-.58l7.57.07a.72.56.9 0 0 .73-.55l.25-11.43a.81.54.8 0 0-.8-.55l-7.57-.07a.7.43 90 0 1-.43-.7l-.01-16.69a.27.26-15.7 0 0-.41-.22l-13 7.49q-1.74 1-1.66 2.66l.34 7.01a.51.48-1.1 0 1-.51.5H223a.74.43 89.4 0 0-.43.75l.25 11.25a.68.42 89 0 0 .43.68l4.49-.17a.99.74-1.1 0 1 1.02.73q-.01 12.49-.19 23.69-.07 4.51 1.72 8.57" vector-effect="non-scaling-stroke"/><path stroke="#842666" d="M253.05 215.8q.51 3.31-.37 6.47a1.11 1.09-4.4 0 1-.6.69q-6.24 2.84-12.88 1.54c-1.54-.3-3.07.05-4.7-.46" vector-effect="non-scaling-stroke"/><path stroke="#9a205c" d="m234.5 224.04-.79-.54" vector-effect="non-scaling-stroke"/><path stroke="#842666" d="M233.71 223.5q-.41-.73-1.08-1.19a.99.95 15.4 0 1-.45-.75q-.15-1.88-1.89-2.81" vector-effect="non-scaling-stroke"/><path stroke="#8d2e7e" d="M272.21 240.25q.17-3.03-1.56-5.43a.86.4-17.9 0 0-.79-.1l-5.96 1.46a.57.54 83.6 0 0-.41.55q.01 1.19.96 1.95m-8.47 2.79q-1.4-2.47-2.85-1.06a1.03 1.01-62.8 0 1-.88.29l-2.73-.38a.94.76-.9 0 1-.75-.59q-.43-1.59-1.96-.89a.48.46 57.7 0 0-.15.72q2.22 2.75 1.79 6.26a.86.63-84.1 0 1-.7.77l-5.58-.39a1.34.26 57.8 0 1-.79-.84q-.68-1.04-.67.05.01 1.13-.45.1-.42-.92-.52-.02a.91.27 48.5 0 0 .28.6q1.09 1.47.02 3.41" vector-effect="non-scaling-stroke"/><path stroke="#6a2444" d="M240.04 249.5q-2.59 1.74-3.36-1.03a.88.41 76.7 0 0-.55-.7q-1.41.11-.29 1.45a1.04.6-18.4 0 1-.96 1.07q-10.05 1.95-20.38 2.75" vector-effect="non-scaling-stroke"/><path stroke="#ac2a68" d="m214.5 253.04-1.85-.37" vector-effect="non-scaling-stroke"/><path stroke="#c6225f" d="M212.65 252.67q1.8-.91 2.5-2.97a.5.48 17.8 0 1 .61-.3c1.62.53 2.12-.49 1.71-1.91q-1.93-6.53-6.97-11.03" vector-effect="non-scaling-stroke"/><path stroke="#ac2a68" d="m210.5 236.46 1.5-.5" vector-effect="non-scaling-stroke"/><path stroke="#c6225f" d="M212 235.96c1.36 1.84 4.56 5.27 7.13 4.68 3.43-.79 1.47-3.88-.15-5.31q-3.4-2.99-7.54-5.1a.98.7-85.1 0 1-.43-.72q-.05-.57-.51-.97" vector-effect="non-scaling-stroke"/><path stroke="#ac2a68" d="m210.5 228.54 1.25-.08" vector-effect="non-scaling-stroke"/><path stroke="#c6225f" d="M211.75 228.46c4.97.26 9.66 7.11 12.28 11.47q1.49 2.48 4.53 1.89 3.25-.64 1.61-3.53-4.06-7.18-11.41-9.55-1.74-.56-2.31-1.77a.73.6 71.8 0 0-.67-.43l-1.74.21" vector-effect="non-scaling-stroke"/><path stroke="#ac2a68" d="m214.04 226.75.23-.67" vector-effect="non-scaling-stroke"/><path stroke="#c6225f" d="M233.71 223.5c-1.08.13-6.6-.1-6.29 1.19a.9.78 4.9 0 0 .57.59l3 1a1.2.71 9.3 0 1 .73.61c1.01 3.43 4.64 7.5 6.75 11.47a.74.59 67.6 0 0 .72.4q.79-.18 1-1.07a.9.55-83 0 1 .55-.69q.79-.09 1.27.5a.67.64 60.9 0 0 .71.22q2.05-.69.72-2.68-3.94-5.9-8.94-11" vector-effect="non-scaling-stroke"/><path stroke="#842666" d="M302.5 207.04c-1.46 8.34-6.52 13.38-14.22 16.06-6.81 2.37-12.46 1.76-19.45-1.23-1.02-.44-1.77-.4-2.82-.39a1.16 1.15-21.4 0 1-.84-.36c-2.66-2.83-4.46-5.64-9.22-5.17q-.29.03-.09-.21.35-.4-.86-.28" vector-effect="non-scaling-stroke"/><path stroke="#c2255e" d="M214.04 226.75q-1.63.3-2.29 1.71m-1.25.08q-6.03-.86-7.82-.12c-2.52 1.05-.76 2.51.7 2.69q5.29.64 8.62 4.85m-1.5.5q-1.8-2.11-4.43-2.05a1.23.5-6.3 0 1-.99-.28l-1.17-1.8q-.38-.59-.59.05l-.61 1.82a.89.46-65.2 0 0 .03.75c3.09 3.72 6.43 8.19 7.79 12.91a1.03.83 5.6 0 0 .62.61c1.55.57.32 2.73 1.5 4.2" vector-effect="non-scaling-stroke"/><path stroke="#903171" d="M202.19 254.88q-4.54-1.3-9.2-.35-.35.07-.74.61a.49.48-54.8 0 1-.67.12c-1.47-1.04-2.86-1.4-4.16-2.67q-3.6-3.48-7.76-6.3-.36-.25-.66-.72c-3.8-5.94-11.06-11.61-17-12.28" vector-effect="non-scaling-stroke"/><path stroke="#c8245c" d="M162 233.29q-2.16-.27-4.15.35" vector-effect="non-scaling-stroke"/><path stroke="#bb2761" d="M157.85 233.64q-2.38-1.3-4.35.16-1.86 1.38-3.75.99" vector-effect="non-scaling-stroke"/><path stroke="#cd4963" d="M149.75 234.79q-4.61-.2-8.53 2.02-.22.12-.98.2l-3.99.46q-.82.09-.03.47l5.53 2.6" vector-effect="non-scaling-stroke"/><path stroke="#c2255e" d="m141.75 240.54 3.75 4.17" vector-effect="non-scaling-stroke"/><path stroke="#89317d" d="M145.5 244.71q-1.53-.35-2.67-1.28a.66.52-38.5 0 0-.69 0l-5.9 3.6a1.02.9 56.4 0 0-.19 1.39l2.66 3.83" vector-effect="non-scaling-stroke"/><path stroke="#c2255e" d="M138.71 252.25q-6.01-7.37-13.52-13.21" vector-effect="non-scaling-stroke"/><path stroke="#cd6763" d="M125.19 239.04q-3.87-1.3-6.65 1.21" vector-effect="non-scaling-stroke"/><path stroke="#ac2a68" d="M118.54 240.25q-2.43 1.25-2.79-.96" vector-effect="non-scaling-stroke"/><path stroke="#393736" d="M337.25 234.04q-2.55-.22-4.5 1.42" vector-effect="non-scaling-stroke"/><path stroke="#505459" d="M332.75 235.46q-2.48.24-3.72 1.31" vector-effect="non-scaling-stroke"/><path stroke="#502c55" d="M326.5 237.29q-27.43 6.6-54.84 13.3c-2.87.71-7.19 1.01-10.7 2.42q-.45.19-.95.14c-3.11-.26-6.57 1.1-8.85 1.4q-4.79.64-9.54 1.55c-3.74.72-8.43.76-12.62 1.94" vector-effect="non-scaling-stroke"/><path stroke="#442b52" d="M229 258.04q-3.11-.24-6.03.82-.49.17-.97.09c-3.24-.5-7.95.76-11.38 1.42-2.69.52-5.56.02-7.81.15q-11.86.67-23.73 1.42c-10.46.67-21.02.36-31.47.75" vector-effect="non-scaling-stroke"/><path stroke="#801e3a" d="m147.61 262.69-3.09.55" vector-effect="non-scaling-stroke"/><path stroke="#79213d" d="M144.52 263.24q-28.28-.02-37.46.57-12.66.82-15.45.85" vector-effect="non-scaling-stroke"/><path stroke="#756948" d="M91.61 264.66q-3.51-.99-6.64.16a1.9.91 24.5 0 1-.94.02l-1.53-.3" vector-effect="non-scaling-stroke"/><path stroke="#8c7e4e" d="M82.5 264.54q-4.4-.62-7.98 1.02" vector-effect="non-scaling-stroke"/><path stroke="#756948" d="M74.52 265.56q-4.18-2.03-9.16-1.28a.29.16-10.4 0 1-.3-.1L65 264a.49.39-9.6 0 0-.5-.27l-5 .54a1.53 1.02-61.2 0 0-.81.42l-.76.75a.83.69 32.6 0 1-.86.11q-1.03-.44-2.07-.09" vector-effect="non-scaling-stroke"/><path stroke="#89764d" d="m55 265.46-2.55.05a1.23.46 4 0 0-.9.27q-1.6 1.93-3.1.04a.92.82-24.2 0 0-.87-.27l-1.08.24" vector-effect="non-scaling-stroke"/><path stroke="#79213d" d="M46.5 265.79q-2.31-.09-2.21-2.04" vector-effect="non-scaling-stroke"/><path stroke="#89764d" d="M44.29 263.75q1.85-.04 3.64.29c2.07.37 4.08-1.49.94-2.19q-4.96-1.12-.12-1.36a.88.8 70.3 0 1 .75.4q1.47 2.27 4.25 1.9" vector-effect="non-scaling-stroke"/><path stroke="#605240" d="M53.75 262.79q-.24 2.64 2 .67" vector-effect="non-scaling-stroke"/><path stroke="#393736" d="M55.75 263.46q1.79.4 2.79-1.21" vector-effect="non-scaling-stroke"/><path stroke="#89764d" d="m58.54 262.25 6.22-.04a1.21.23-2.7 0 1 .9.13q1.24.9 2.55.11.21-.13 1.02-.24l5.31-.71" vector-effect="non-scaling-stroke"/><path stroke="#79213d" d="m74.54 261.5.96-.29" vector-effect="non-scaling-stroke"/><path stroke="#8c7e4e" d="m75.5 261.21 7.75.25" vector-effect="non-scaling-stroke"/><path stroke="#605240" d="m83.25 261.46 1.75-.25" vector-effect="non-scaling-stroke"/><path stroke="#89764d" d="m85 261.21 5.84-.31" vector-effect="non-scaling-stroke"/><path stroke="#79213d" d="M90.84 260.9q1.31.63 5.68.16 10.22-1.09 28.45-1.13a.79.61 5.5 0 0 .73-.46q.22-.86-.76-2.08" vector-effect="non-scaling-stroke"/><path stroke="#6a2444" d="M124.94 257.39q6.65 2.47 13.56 1.4" vector-effect="non-scaling-stroke"/><path stroke="#801e3a" d="m138.5 258.79 4.25-.08" vector-effect="non-scaling-stroke"/><path stroke="#462a59" d="m142.75 258.71 11-.75" vector-effect="non-scaling-stroke"/><path stroke="#4e2a4d" d="M153.75 257.96q8.46.74 16.74-.84a1.21 1.06 51 0 1 .75.13q2.03 1.07 3.75-.25a3.76 1.11 11.9 0 1 2.84-.23c4.37.59 8.32-.72 12.35-.73q6.08-.02 12.01-1.16" vector-effect="non-scaling-stroke"/><path stroke="#662743" d="m202.19 254.88 12.31-1.84" vector-effect="non-scaling-stroke"/><path stroke="#462a59" d="m240.04 249.5 16.21-2.54" vector-effect="non-scaling-stroke"/><path stroke="#91908f" d="M325 229.79q1.53.06 2.75-.83" vector-effect="non-scaling-stroke"/><path stroke="#505459" d="m327.75 228.96 6.97-2.24" vector-effect="non-scaling-stroke"/><path stroke="#7d6995" d="m327.29 204.25-.87 19.45" vector-effect="non-scaling-stroke"/><path stroke="#b29ac2" d="M326.42 223.7q-3.25.82-2.67 4.8.2 1.37 1.25 1.29" vector-effect="non-scaling-stroke"/><path stroke="#442b52" d="M325 229.79q-5.4 2.99-11.32 4.48c-8.97 2.27-15.02 4.07-23 5.87q-2.08.46-3.89.17a1.05.89-57.9 0 0-.82.26q-.65.57-1.74.84-16.11 3.85-27.98 5.55" vector-effect="non-scaling-stroke"/><path stroke="#67358c" d="M256.25 246.96q1.14-3.04-.27-5.49" vector-effect="non-scaling-stroke"/><path stroke="#8b2e77" d="M255.98 241.47q3.47-.05 6.18-1.97a.57.56 50 0 1 .73.07q1.24 1.32 1.56-.89" vector-effect="non-scaling-stroke"/><path stroke="#67358c" d="M264.45 238.68q1.55 2.28.98 5.14a.49.48-79.7 0 0 .39.58q5.41.93 6.39-4.15" vector-effect="non-scaling-stroke"/><path stroke="#8b2e77" d="M272.21 240.25c1.37 2.92 1.99-2.24.87-4q-.21-.34.18-.19c1.85.73 5.25-2.23 7.99-2.23q.4 0 .79-.05c2.64-.33 4.42 1.1 6.76-.1a.92.9 42.4 0 1 .78-.03q1.2.53 2.43.15a.96.79 88 0 0 .57-.74q.54-3.43 3.61-2.55a1.4 1.19 35.2 0 0 .98-.09q1.6-.88 3.29-.15a1.5.39 28.5 0 0 1.05.26l2.23-.56a2.07 1.48-67.2 0 0 .89-.55c.89-.94 4.25-1.66 5.67-2.48a1.84 1.07 19.9 0 1 .95-.17q1.85.13 2.93-1.36a.78.58 48.9 0 0-.06-.8l-1.5-2.26q-.38-.57-.41-.85l-.47-5.24q-.06-.74.01-1.02 1.21-4.35.25-8.78" vector-effect="non-scaling-stroke"/><path stroke="#e75e5a" d="M125.19 239.04q-.03 1.8 1.33 2.33.56.22.81.53l1.8 2.2a.39.32-22.5 0 1-.29.54l-1.82.33" vector-effect="non-scaling-stroke"/><path stroke="#d16464" d="M127.02 244.97q-3.33-3.91-8.48-4.72" vector-effect="non-scaling-stroke"/><path stroke="#e7415a" d="M146.18 239.29q-1.9 1.25-4.43 1.25" vector-effect="non-scaling-stroke"/><path stroke="#713487" d="M153.75 257.96c1.23-2.39-1.38-3.26-1.46-5.21" vector-effect="non-scaling-stroke"/><path stroke="#aa2868" d="m152.29 252.75 2.43 3.04q1.22 1.52 2.82 1.03c2.11-.66 7.95.28 8.37-1.56a.94.82 29.9 0 0-.29-.84c-3.79-3.56-10.76-12.2-15.33-13.6a1.69 1.39 75.5 0 1-.77-.56q-1.35-1.75-3.34-.97" vector-effect="non-scaling-stroke"/><path stroke="#b54d6d" d="M146.18 239.29q-1.43-.97-1.48-2.04a.4.39 8.1 0 1 .53-.39l5.47 1.87" vector-effect="non-scaling-stroke"/><path stroke="#a32874" d="M152.29 252.75q-2.75-4.56-6.79-8.04m-6.79 7.54 2.3 3.04q.26.34.78.57 1.78.76.96 2.85" vector-effect="non-scaling-stroke"/><path stroke="#b02766" d="M162 233.29q-.67 2.32 1.29 1.95a1.34 1.19-33.2 0 1 .89.13q4.88 2.74 8.09 7.36 1.45 2.09-1.03 1.32-3.1-.95-6.03-2.27c-1.85-.84-4.62-5.03-8.42-6.03" vector-effect="non-scaling-stroke"/><path stroke="#db1e56" d="M157.85 233.64q-.86 1.07-1.06 2.11" vector-effect="non-scaling-stroke"/><path stroke="#a32b6b" d="M156.79 235.75c-3.31 1.77.07 1.85.99 2.45 3.23 2.14 12.94 7.96 11.43 12.33-1.32 3.8-3.99 1.92-5.81.01q-6.01-6.29-12.7-11.81" vector-effect="non-scaling-stroke"/><path stroke="#e0435d" d="M150.7 238.73q4.3-1.93-.95-3.94" vector-effect="non-scaling-stroke"/><path stroke="#c6225f" d="m127.02 244.97 9.55 13.29a1.17.91 69.5 0 0 .77.47l1.16.06" vector-effect="non-scaling-stroke"/><path stroke="#bf2462" d="m124.94 257.39-.44-.35" vector-effect="non-scaling-stroke"/><path stroke="#cc215d" d="M124.5 257.04c-5.02-5.93-8.27-9.58-15.5-10.08" vector-effect="non-scaling-stroke"/><path stroke="#be566c" d="M109 246.96q.11-.42 0-.79a.75.58-8 0 0-.72-.41q-3.69.23-3.07-2.88" vector-effect="non-scaling-stroke"/><path stroke="#ddc677" d="M74.52 265.56c-3.37 5.38-6.35 5.79-10.61 8.66a.71.34-37.9 0 0-.4.8l1.18.81a2.09.24-26 0 0 1.85-.65l5.11-2.47c1.71-.83 10.63-6.61 10.85-8.17" vector-effect="non-scaling-stroke"/><path stroke="#c99b70" d="m72.5 279.04.02.84" vector-effect="non-scaling-stroke"/><path stroke="#dbbf76" d="M48.72 272.32q0-2.62-2.92-2.18a1.11.51-12.1 0 1-.99-.22q-.69-1.18.72-1.37a2.78 1.48-16.3 0 1 2.12.44c4.97 5.02 12.57 4.06 16.23-1.83q1.12-1.81-.87-1.66l-4.01.3a1.51.98 12.1 0 0-.84.32q-1.15 1.03-2.42 1.85c-1.18.77-1.87 2.08-3.63 2.49a.43.26 87.8 0 1-.31-.47l.06-1.49a.77.38-88.2 0 1 .4-.75l1.74-.01a1.16.65 9.2 0 0 .85-.31q.69-.9.15-1.97" vector-effect="non-scaling-stroke"/><path stroke="#ad2a70" d="M327.46 240.5q-2.39-.23-2.13 1.72a.46.33 87.8 0 1-.35.52q-1.41-.15-1.42 1.28-.01 1.18-.4.05-1.45-4.09-4.7-1.05a1.51 1.51-72.8 0 1-.7.37q-9.98 2.16-12.78 2.94-2.95.83-4.2 3.99-.17.42-.35.01c-1.58-3.6-5.24 6.27-5.61 7.12a.73.71-75.4 0 1-.71.43c-2.8-.26-4-2.12-6.99-.63a1.87 1.59-51.8 0 1-.93.19q-2.49-.21-4.92.29c-3.56.73-6.5-.09-10.07.93a.75.59 58 0 1-.69-.25q-.26-.28-.52-.12-.51.33-.74.35l-6.44.56a1.24.71-68.7 0 0-.76.61q-.49.84-1.56.94a.55.44 88.1 0 1-.48-.56c-.04-4.38-5.56-3.16-7.97-2.88a.28.27-81.8 0 1-.27-.38c.66-1.65-2.3-1.05-3.01-.39q-1.74 1.61-3.13 3.61-1.21 1.75-4.63.11-3.17-1.52-3.35 2.1a1.14.33-88.7 0 1-.31.99l-1.08.42a.57.54-23.6 0 1-.7-.25q-2.01-3.95-4.2-.41a1.52.97-1.6 0 1-.81.55c-3.37 1.01 1.77-3.77-2.55-4.7" vector-effect="non-scaling-stroke"/><path stroke="#713788" d="m228 258.96 1-.92" vector-effect="non-scaling-stroke"/><path stroke="#9f8d64" d="M58.54 262.25c-1.15-.73-5.41-4.25-6.46-3.51q-.43.31.08.51c1.7.65 4.38 1.66 3.55 4" vector-effect="non-scaling-stroke"/><path stroke="#c6a86e" d="m55.71 263.25-1.96-.46" vector-effect="non-scaling-stroke"/><path stroke="#89929c" d="M352 237.29q-1.75-.42-3.11.36a.76.52 69.5 0 0-.19.78q.66 2.39-1.3.33-1.14-1.2-4.22.35-.65.32-.94.88a.78.3 11.9 0 0 .76.49c1.68.3 5.88 6.89 6.39 7.71" vector-effect="non-scaling-stroke"/><path stroke="#c9af6f" d="M68.8 250.29q4.72 3.48 9.87 6.3 1.04.57 2.57 2.98a1.36 1.05-4 0 0 .75.5q1.08.29 1.26 1.39" vector-effect="non-scaling-stroke"/><path stroke="#c6a86e" d="M85 261.21c-.47-1.65-1.77-2.24-2.64-3.16q-5.49-5.8-13.56-7.76" vector-effect="non-scaling-stroke"/><path stroke="#f2d47c" d="m68.8 250.29-.34-1.29" vector-effect="non-scaling-stroke"/><path stroke="#666a70" d="M338 234.79c.16.85 1.42 3.26.71 3.78a.91.74 40.6 0 1-.93-.02l-5.03-3.09" vector-effect="non-scaling-stroke"/><path stroke="#995d7a" d="m213.96 267.25-1.92-.25" vector-effect="non-scaling-stroke"/><path stroke="#a1296d" d="M212.04 267q.25-1.42-.42-2.32a.99.16 7.3 0 0-.81-.24q-1.48-.23-2.78.27a.72.44-20.1 0 1-.86-.17q-1.14-3.85-5.18-2.47a1.19 1.03-3.9 0 0-.74.73q-.6 2.1-2.69 2.73a1.89.78-27.5 0 1-1.04.09q-4.09-1.14-8.33-.16a1.17.46-7.1 0 0-.78.43q-.74 1.46-2.15.91a.61.47 30.7 0 1-.34-.86l2.1-1.93a1.1.05-42.6 0 0 .76-.76l-.17-.83a.97.51-1 0 0-.87-.44q-3.36-.09-5.82 2.19a1.66 1.24-61.9 0 1-.87.41c-2.46.18-3.94 3.78-6.06 1.15a1.06.37-5.5 0 0-.82-.2q-2.15.05-3.76 1.37-.93.76-.67-.14.09-.29.33-.44.35-.22-.02-.37-1-.4-1.21-1.55a1.11.73 16 0 0-.56-.65c-4.5-2.45-8.03 3.23-10.96 5.88a1.39.97-58.4 0 1-.82.36q-2.61.05-4.17 2.11a.93.62-47.6 0 1-1.23.3q-1.66-2.3-4.54-1.98a.53.22-5.1 0 1-.57-.18l.02-.99a1.46 1.34 67.5 0 1 .32-.88q2.09-2.49 1.28-5.68" vector-effect="non-scaling-stroke"/><path stroke="#bec3c9" d="m327.75 228.96.04-3.21" vector-effect="non-scaling-stroke"/><path stroke="#d3495f" d="M128.29 276.25c-4.05 3.42-7.49 6.57-12.77 5.3a.6.5 13.5 0 1-.47-.63l.41-1.67" vector-effect="non-scaling-stroke"/><path stroke="#cd5365" d="m115.46 279.25 2.19-2.69" vector-effect="non-scaling-stroke"/><path stroke="#db1e56" d="M117.65 276.56q3.97-2.78 7.02-6.72a.87.05 84.8 0 0-.03-.83l-.19-2.25a.42.35 79.2 0 0-.48-.39c-3.75 1.37-8.1 6.77-11.22 9.09" vector-effect="non-scaling-stroke"/><path stroke="#cd5365" d="M112.75 275.46q-7.7 4.85-16.55 2.57-1.91-.5-1.08-1.56.35-.45-.14-.46l-.94-.01" vector-effect="non-scaling-stroke"/><path stroke="#e0435d" d="M94.04 276c-2.15-2.62-5.82-.92-7.8.86" vector-effect="non-scaling-stroke"/><path stroke="#cd5365" d="m86.24 276.86-13.74 2.18" vector-effect="non-scaling-stroke"/><path stroke="#ca6966" d="M72.5 279.04q-1.18-1.42.46-2.33 9.72-5.37 18.65-12.05" vector-effect="non-scaling-stroke"/><path stroke="#766857" d="m55.75 263.46-.04-.21" vector-effect="non-scaling-stroke"/><path stroke="#db1e56" d="M103.5 248.54q6.32 4.06 11.36 9.67a1.58 1.44 71.8 0 0 .83.47c1.85.36 8.74.99 8.81-1.64" vector-effect="non-scaling-stroke"/><path stroke="#df776b" d="M90.84 260.9q-4.73-4.61-11.25-8.26-3.25-1.82-5.84-2.76-.43-.16-.81-.54-1.89-1.91-4.48-.34" vector-effect="non-scaling-stroke"/><path stroke="#e17e6c" d="M68.46 249c-.48.27-6.9 1.83-4.52 2.9q5 2.24 8.75 6.23.3.32.81.5 1.82.63 2 2.58" vector-effect="non-scaling-stroke"/><path stroke="#df776b" d="m74.54 261.5-12.51-9.54q-1.28-.99-4.28-.25-5.76 1.42-10.06 5.36c-2.22 2.03-7.15 2.99-8.19 4.73q-.26.42.26.43 2.56.02 4.53 1.52m2.21 2.04q-3.32 2.32-6.25.23a.95.31 33.2 0 0-1.09-.29l-.22 1.29q-.34 1.97 1.87 2.7l7.91 2.6" vector-effect="non-scaling-stroke"/><path stroke="#ca6966" d="M48.72 272.32q2.93-.33 4.13 2.7" vector-effect="non-scaling-stroke"/><path stroke="#d87894" d="m177.5 284.96-1.75.08" vector-effect="non-scaling-stroke"/><path stroke="#da475c" d="M156.67 286.86q-1.25-1.81 2.77-3.87a1.45 1.44 65.1 0 0 .67-1.85c-.17-.4 3.08-2.09 1.12-1.95a1.69.63-45 0 0-.89.41q-2.39 1.76-5.34 1.38-1.05-.13-.18-.71 1.74-1.17-.18-2.16a.96.63-42 0 0-.83.13q-2.33 1.53-4.35.14a.69.25 32.7 0 0-.78-.17q-.52 1.44-2.2 1.28a1.27.33-44.6 0 0-.88.51c-2.37 2.07-5.08 2.03-7.28 3.67a1.38.81-50.3 0 1-.82.3l-5.17-.33q-3.24-.2-.85-1.89l2.24-1.57a1.2.11-34.6 0 0 .82-.68q.4-1.19 1.23-1.93.46-.42-.09-.48l-7.39-.84" vector-effect="non-scaling-stroke"/><path stroke="#d51f58" d="M128.29 276.25c3-3.54 6.29-6.36 9.22-9.97q2.53-3.1 7.01-3.04" vector-effect="non-scaling-stroke"/><path stroke="#89929c" d="m343.98 216.25-3.28.61a1.69.79.4 0 0-.92.42l-3.08 3.42a.55.47-44 0 1-.77.05c-.52-.62 1.94-5.19 2.25-6.41" vector-effect="non-scaling-stroke"/><path stroke="#b4b8bc" d="M338.18 214.34q1.19-1.23.09-2.83c-.27-.38-1.88-6.59-3.03-5.63a1.52 1.19 78.6 0 0-.43.85q-.6 4.37 2.69 7.48" vector-effect="non-scaling-stroke"/><path stroke="#89929c" d="M337.5 214.21q-.44.12-.84.04a.94.87 81.7 0 1-.62-.5q-.76-1.6-2.1-.6a1.1.84 73.4 0 0-.34.9q.1 1.13.22 2.25c.21 1.96-.75 3.39-.01 5.46a.93.8 57.1 0 1-.12.86q-2.29 2.82-5.9 3.13" vector-effect="non-scaling-stroke"/><path stroke="#caced2" d="M327.79 225.75q.4-2.37-1.37-2.05" vector-effect="non-scaling-stroke"/><path stroke="#da4f5f" d="m109 246.96-5.5 1.58" vector-effect="non-scaling-stroke"/><path stroke="#cd5365" d="M103.5 248.54q-6.33-3.55-12.5-.22a1.25 1.15 36.8 0 1-.91.09q-2.3-.65-.61 2.16" vector-effect="non-scaling-stroke"/><path stroke="#df9267" d="m89.48 250.57-5.77-2.38a.95.52 89.3 0 1-.4-.71c-.22-1.46-9.68-.78-10.06.23" vector-effect="non-scaling-stroke"/><path stroke="#cd5365" d="m73.25 247.71-2.5-.5" vector-effect="non-scaling-stroke"/><path stroke="#d27b68" d="M115.46 279.25c-2.65-1-2.82 2.16-3.21 3.71" vector-effect="non-scaling-stroke"/><path stroke="#da475c" d="M330.33 249.65q-.43 7.85-8.04 8.61-1.68.16-8.54 2.53" vector-effect="non-scaling-stroke"/><path stroke="#d45062" d="m313.75 260.79-2.75.5" vector-effect="non-scaling-stroke"/><path stroke="#da475c" d="M311 261.29q-6.11.52-9.75 3.21-2.03 1.5-3.04 5.25" vector-effect="non-scaling-stroke"/><path stroke="#d45062" d="M298.21 269.75c-3.63 1.53-.57-2.73.05-3.35a1.02.93-28.2 0 0 .29-.83c-.11-.83-.47-7.17-2.12-6.33a.89.81 77.2 0 0-.43.76l.01 4a1.45 1.26-27.8 0 1-.34.88q-2.5 3.04-3.96 6.63a1.17 1.01-83.6 0 1-.72.67q-2.77.72-1.63-1.31a.3.13 9.9 0 0-.31-.21l-1.3-.13a1.74 1.29-52 0 0-.97.27l-5.33 3.41a.87.36-32.3 0 1-.94.16q-.81-1.4.88-2.29 1.69-.88-.08-.82l-4.56.15a1.37.55-62.3 0 0-.83.71q-4.51 6.85-12.69 7.33-1.06.07-1.39-.93a.75.6-28.3 0 1 .32-.75q1.58-1.09 1.55-3.02" vector-effect="non-scaling-stroke"/><path stroke="#e67468" d="M263.71 274.75q.26-.53.19-1.03a.75.62.1 0 0-.65-.54q-1.71-.17-3.39.19c-2.3.49-3.52 2.39-5.63 3.63" vector-effect="non-scaling-stroke"/><path stroke="#d45062" d="M254.23 277q-4.99 5.33-12.25 4.23-.88-.13-.24-.54 4.23-2.72 5.55-7.62.29-1.04-.33-.67-2.74 1.65-5.79.74a1.15.91-51.9 0 0-.94.23q-1.52 1.23-1.19 3.13" vector-effect="non-scaling-stroke"/><path stroke="#e87c69" d="m239.04 276.5-3.58 3.8" vector-effect="non-scaling-stroke"/><path stroke="#d45062" d="M235.46 280.3q-2.63 1.95-5.98.91-1.21-.38-.99-1.17a.25.23-84.6 0 0-.24-.32l-2.5.33a.99.04-6.9 0 0-.93.15q-1.14.95-2.65.91-.04 0-.87-.46-1.25-.7-2.26.38-.02.02-1.07.35l-5.17 1.64a1.07.26-20 0 1-.9.1q-1.56-1.12-3.11-.06a1.17.19 11.3 0 1-1-.04c-3.48-.6-6.15 1.39-8.78.38a.33.32-56.1 0 1-.1-.55q2.09-1.92 4.53-3.29c5.03-2.82 8.12-7.16 10.52-12.31" vector-effect="non-scaling-stroke"/><path stroke="#a1296d" d="M213.96 267.25q-.13-2.53 1.57-3.67a1.1.42-89.3 0 0 .31-.78l.13-1.3a1.43.92 81.5 0 1 .39-.87q2.22-1.87 4.86-.59a1.25.49 22.1 0 1 .81.77l.02 1.94a1.1.41-86.1 0 0 .25.85c1.48 1.07 1.51-2.94 1.52-3.51q.05-2.38 1.93-1.33 1.03.58 2.25.2" vector-effect="non-scaling-stroke"/><path stroke="#bec2c8" d="M356 249.46q-.19-2.33-2.5-2.67a.86.67 83.5 0 1-.6-.61q-1.06-3.91-2.76.04a.54.49 22.9 0 0 .31.67q2.4.95 4.05 2.82" vector-effect="non-scaling-stroke"/><path stroke="#d27b68" d="M298.21 269.75q2.43.86 3.6-1.01a1.06.7-69.4 0 1 .68-.49q1.44-.12 1.52-1.49.03-.49.21.03c.99 2.92 5.79-3.98 6.78-5.5" vector-effect="non-scaling-stroke"/><path stroke="#d0aca1" d="m182.54 285.25-5.04-.29" vector-effect="non-scaling-stroke"/><path stroke="#d45062" d="M177.5 284.96q2.66.01 5.03-1.04.46-.2.96-.15c6.57.56 10.85-3.72 15.74-7.24q.3-.21.29.19c-.05 1.74 3.91.58 4.7-.5a1.76 1.41-77 0 1 .75-.59c2.3-.81 5.87-6.47 7.07-8.63" vector-effect="non-scaling-stroke"/><path stroke="#e0b076" d="M235.46 280.3c-1.63 2.17 4.05 1.97 5.28-.37q.27-.51.67-.79l2.04-1.43a1.17.88-21.7 0 0 .51-.84c.02-1.32-4.06-.41-4.92-.37" vector-effect="non-scaling-stroke"/><path stroke="#dea875" d="M254.23 277q.94 3.34 4.28 2.34.33-.1.99-.08.78.02.75-.76a1.22.58-36.1 0 1 .41-.76l3.05-2.99" vector-effect="non-scaling-stroke"/><path stroke="#a8adb3" d="m338.18 214.34-.68-.13" vector-effect="non-scaling-stroke"/><path stroke="#df7567" d="m94.04 276-.04.25a.6.37 88.2 0 1-.22.38q-3.64 2.11-7.54.23" vector-effect="non-scaling-stroke"/><path stroke="#da4f5f" d="M117.65 276.56q-2.89.52-4.9-1.1" vector-effect="non-scaling-stroke"/><path stroke="#e0615d" d="M89.48 250.57q4.64 3.02-1.26 2.67-.41-.02-.96.18c-2.49.9-11.43-4.39-14.01-5.71" vector-effect="non-scaling-stroke"/><path stroke="#d27b68" d="m314.79 265.75-1.34-.99a.71.63-62.9 0 1-.2-.79q.58-1.52.5-3.18" vector-effect="non-scaling-stroke"/><path stroke="#a389a7" d="m355.62 160.44.09 10.06a.75.28 89.1 0 0 .3.78l1.06-.16a.88.5 85.7 0 0 .41-.87l-.49-9.5a.73.56 86.5 0 1 .51-.76l4.25-.29q.56-.04.24-.42c-.63-.76-8.56-.75-9.98-.78a.78.57 8.2 0 0-.7.37c-.34.87 3.21.99 3.64 1.08a.82.4 10.2 0 1 .67.49" vector-effect="non-scaling-stroke"/><path stroke="#caced2" d="m372.46 163.5-1.58 2.43q-.32.5-.37.89c-.55 4.22.71-1.39 2.45-2.57" vector-effect="non-scaling-stroke"/><path stroke="#a389a7" d="M372.96 164.25c.37 1.02.62 8.49 2.22 7.14a1.17.41 84.3 0 0 .22-.89l-.21-11.25a.54.46-88.3 0 0-.42-.52c-2.25-.22-2.27 3.31-2.31 4.77" vector-effect="non-scaling-stroke"/><path stroke="#6e587a" d="m372.96 164.25-.5-.75" vector-effect="non-scaling-stroke"/><path stroke="#a389a7" d="M364.59 161.86q2.73 3.79 3.53 8.36a1.12.32 81.1 0 0 .46.98l1.17.07a1.05.75-74.9 0 0 .84-.69q.48-1.25-.83-1.36a.78.65 81.5 0 1-.59-.52l-3.1-9.01a.93.35 72.3 0 0-.58-.74l-1.5.24a.85.5 87.6 0 0-.43.81l.01 10.75a.72.47 81.2 0 0 .69.76l.82-.43a.91.57 76.1 0 0 .27-.84l-1.21-8.23q-.15-.99.45-.15" vector-effect="non-scaling-stroke"/><path stroke="#a98fad" d="m188 203.44 30.25.02a.63.61.9 0 0 .63-.59c.42-14-4.64-28.6-20.51-30.35-12.07-1.33-22.35 5.21-25.4 17.23-3.1 12.21-.2 28.69 13.27 33.49 7.44 2.66 17.54 2.17 24.22-2.71 4.16-3.04 5.95-7.12 8.19-11.21a.62.57-70.8 0 0-.39-.9l-14.48-2.12a.78.43-78.4 0 0-.56.66c-2.21 10.24-15.41 6.22-15.65-3.16a.43.35-.6 0 1 .43-.36" vector-effect="non-scaling-stroke"/><path stroke="#c39bc4" d="M46.5 132.69a.48.48-81.5 0 0 .47.63l5.6-.15a.48.48 78.4 0 0 .43-.66l-3.01-7.37a.48.48-48 0 0-.9.03l-2.59 7.52" vector-effect="non-scaling-stroke"/><path stroke="#d893b4" d="M74.194 139.648a5.51 4.06 88.3 0 0 3.894-5.628 5.51 4.06 88.3 0 0-4.221-5.388 5.51 4.06 88.3 0 0-3.895 5.628 5.51 4.06 88.3 0 0 4.222 5.388" vector-effect="non-scaling-stroke"/><path stroke="#ee8eaa" d="M90.76 137.11c-1.17 4.28 5 3.58 6.24-.13q.96-2.85-1.52-2.11l-4.22 1.28a1.23.3-76.2 0 0-.5.96" vector-effect="non-scaling-stroke"/><path stroke="#f8d0af" d="M156.53 128.39q-4.98-.98-4.93 4.12a.47.4-2 0 0 .5.39q2.47-.16 4.97-.07 2.88.11 1.41-2.71a3.41 2.2 74.3 0 0-1.95-1.73" vector-effect="non-scaling-stroke"/><path stroke="#957c9b" d="m130.92 204.6-12.25-46.69a.97.88-6.5 0 0-.92-.66h-17a.5.45 90 0 0-.45.5l.26 62.69a1.19.9.1 0 0 1.18.89l7.76.07a.99.63.4 0 0 1-.63q.01-24.54-.01-49.07c0-2.44 2.24-2.3 2.77-.16q6.04 24.65 12.26 49.32a.84.73 81.9 0 0 .73.64h10a.72.69 6.7 0 0 .69-.52l12.39-49.96a1.14.41-76.9 0 1 .62-.96l1.74.16a1.06.25 88.6 0 1 .27 1.03c.49 16.56-.14 33.12.1 49.71a.51.44 89.3 0 0 .44.5l9.25.13a.59.57 90 0 0 .57-.59l-.25-63a.58.44.6 0 0-.57-.44l-16.25-.23a1.57 1.5-82.1 0 0-1.48 1.17l-12.17 46.07q-.35 1.31-.68.03" vector-effect="non-scaling-stroke"/><path stroke="#bc4e74" d="M88.14 176.34c-.07-4.62.2-12.02-.2-18.08a.79.62 87.6 0 0-.63-.74H75.44a.76.39-89.4 0 0-.4.75q-.29 33.72.11 41.98c.44 9.03.3 27.1-14.46 22.1-5.07-1.72-6.71-6.64-7.27-12a.82.59 83.4 0 0-.69-.76l-10.51 1.48a.92.63 85.6 0 0-.53.92q1.02 20.24 21.29 21.52c8.78.56 20.12-3.87 23.03-13q2.2-6.88 2.25-15.26.1-14.46-.12-28.91" vector-effect="non-scaling-stroke"/><path stroke="#957c9b" d="M249.09 213.74c-2.96.57-7.17 1.04-7.28-3.31q-.33-13.3-.45-26.63a.61.59.9 0 1 .64-.6l7.5.28a.65.42 1.4 0 0 .68-.42l-.23-7.06a.69.53-.9 0 0-.7-.52l-7.5.11a.4.34 89.3 0 1-.35-.4l.14-15.19q.01-.85-.72-.42l-9.42 5.54a1.11.96-17.2 0 0-.55.88l.07 8.25a1.24.91 89.7 0 1-.91 1.25h-4.51a.51.47-89.4 0 0-.47.5l-.11 7.01a.58.48.5 0 0 .58.49h5a.76.5 90 0 1 .5.76q-.03 12.47.19 24.92c.23 12.31 7.84 15.49 18.68 12.06a.97.65-13 0 0 .69-.74l-.22-6.01a1.07.85-7.5 0 0-1.25-.75m20.35-12.79 31.06.21a.6.34.9 0 0 .59-.32c.88-16.12-8.94-29.14-25.97-25.82-10.29 2.02-15.36 10.59-16.16 20.69-.92 11.55 2.95 23.21 15.46 26.03 9.89 2.23 21.09-.76 24.99-10.96a.52.44-75.1 0 0-.33-.68l-8.84-1.24a.68.68-73.7 0 0-.71.39q-3.02 6.46-9.25 6.04c-7.14-.48-10.93-6.8-11.2-13.48a.83.39 87.8 0 1 .36-.86" vector-effect="non-scaling-stroke"/><path stroke="#9c84ac" d="M324.25 184.05c-.56-.85-.35-6.55-.56-7.93a.72.69 85.7 0 0-.69-.62h-8.25a.81.52-90 0 0-.52.81l.05 43.19a1.94 1.71-89.9 0 0 1.7 1.94l7.84.03a.7.41 89.4 0 0 .41-.71q-.12-12.3.92-24.58c.66-7.74 4.28-15.62 13.68-11.26a.99.79 22.2 0 0 1.29-.38l2.34-7.44a1.38 1.06 20.9 0 0-.87-1.42c-9.22-3.88-12.71 1.37-16.77 8.32a.35.32-47.2 0 1-.57.05" vector-effect="non-scaling-stroke"/><path stroke="#937997" d="m215.02 210.11-9.78-1.31a.64.59-78.3 0 0-.65.47q-1.34 4.64-5.4 5.69c-8.75 2.27-13.9-5.37-14.52-13.34a.67.58 87.7 0 1 .58-.73l31.25.39a.39.28-1.3 0 0 .4-.3c-.48-10.44-2.75-20.47-13.13-24.96q-6.83-2.96-14.08-.96c-12.77 3.53-16.25 15.42-15.27 27.26 1.02 12.27 8.73 20.05 20.89 20.01 8.97-.04 16.27-3.11 19.86-11.73a.38.26-72.4 0 0-.15-.49" vector-effect="non-scaling-stroke"/><path stroke="#8d7391" d="M201.25 183.78q-1.68-1.37-4.16-1.56c-7.89-.62-12.16 5.52-11.97 12.96a.63.59-.9 0 0 .63.57l19.94-.01a.46.33-86.4 0 0 .34-.42q.59-7.15-4.78-11.54" vector-effect="non-scaling-stroke"/><path stroke="#937997" d="M290.58 195.11c1.12-17.08-21.89-17.38-20.92 0a.67.53 88.2 0 0 .53.62l19.81.03a.69.57-87.9 0 0 .58-.65" vector-effect="non-scaling-stroke"/><path stroke="#a389a7" d="M203.73 192.96c.03-11.46-15.85-11.56-16.16.02a.5.43-88.7 0 0 .43.52h15.25a.54.48 90 0 0 .48-.54" vector-effect="non-scaling-stroke"/><path stroke="#a98fad" d="M288.21 192.94c-.61-11.18-15.35-11.46-16.23-.08a.56.47-87.2 0 0 .46.61l15.31.04a.54.47 88.3 0 0 .46-.57" vector-effect="non-scaling-stroke"/><path stroke="#bec2c8" d="M328.342 212.93a2.06 1.15 95.8 0 0 1.352-1.934 2.06 1.15 95.8 0 0-.936-2.166 2.06 1.15 95.8 0 0-1.352 1.934 2.06 1.15 95.8 0 0 .936 2.165" vector-effect="non-scaling-stroke"/><path stroke="#cc215d" d="M232.87 234.31q-2.6-4.2-5.45-8.25a1.87 1.58 78.8 0 0-.79-.63q-3.55-1.34-7.38-1.43a1.23.25-40.7 0 0-.84.47c-2.08 1.64 1.2 2.2 2.49 2.99a1.89 1.48-24.3 0 0 .93.23c4.39-.07 6.56 6.75 10.25 8.37q2.56 1.13.79-1.75" vector-effect="non-scaling-stroke"/><path stroke="#c2255e" d="M184.99 232.86q-3.76 1.03-6.73-1.3a2.33.48 39.6 0 0-1.77-.94l-2.99.73q-.94.23.11.97c1.64 1.15 3.58 1.85 4.97 3.21q5.79 5.68 11.52 11.44a1.19.57-14 0 0 .89.18l6-.65q2.75-.3 1.51-1.98-5.1-6.9-13.12-10-.69-.27-.14-.8.84-.8 2.84.44 8 4.95 14.94 11.31 1.8 1.64 2.29-.45l.76-3.25a1.24.58 40.2 0 0-.42-.92l-5.47-5.79a1.04.61 37.8 0 1-.31-.78c.48-2.19-5.04-2.95-6.65-3.48a1.56.5 24.7 0 0-.99-.12q-2.95.9-5.97.24a.87.03-27.3 0 0-.76.36q-.77.39-.22 1.21a.36.22-20.8 0 1-.29.37" vector-effect="non-scaling-stroke"/><path stroke="#a8adb3" d="M339.44 243.44c-1.24.94 6.41 6.46 6.86 7.43.43.9 1.24 6.12 2.88 1.82a2.25 2.25 36.9 0 0-.31-2.17c-.7-.9-8.88-12.06-9.43-7.08" vector-effect="non-scaling-stroke"/><path stroke="#b2b7bf" d="M338.89 252.76c.31-2.09 1.09-5.93-1.07-6.11a.6.34 5.1 0 1-.58-.4q.16-1.34-.95-2.06-.95-.62-.44.73 1.34 3.59 1.45 7.18c.02.89 1.2 3.36 1.59.66" vector-effect="non-scaling-stroke"/><path stroke="#ddc677" d="M55.08 274.95q1.86 1.52 3.46-.14a1.79 1.18 8 0 1 .9-.43c4.82-.85 7.58-4.42 11.24-7.03a1.07.48-32.3 0 0 .56-.85q-.27-.95-1.24-1.26-2.11-.69-3.25.79c-2.28 2.95-8.2 8.64-12.31 7.54a.81.5 15.8 0 0-.88.25q-.3.9.69.66a1.12.22 40.8 0 1 .83.47" vector-effect="non-scaling-stroke"/></g><path fill="#fff" d="M0 0h400v400H0V0Zm52.19 117.88-4.94-.01a1.23.45-71.7 0 0-.71.89l-9.02 23.5a.79.52-70 0 0 .22.94q2.57.8 4.99-.13a1.06.02-70.5 0 0 .37-.99l1.46-4.01a1.04.84 7.7 0 1 .94-.57H54a1.05.85-8.2 0 1 .94.56l1.59 4.18a1.05.14 69.7 0 0 .46.86l3.25.47q2.53.37 1.4-2.49l-9.01-22.63a.78.26 71.2 0 0-.44-.57Zm88.13 7.75q-4.27-2.51-7.95.76-1.21 1.08-1.2-.39l.05-7.25a.75.72 90 0 0-.72-.75h-3.75a.75.5-90 0 0-.5.75v23.75a.96.43 89.8 0 0 .44.97l4.06-.09a.88.53 89.7 0 0 .52-.88c-.04-4.07-2-14.89 4.82-13.97q2.14.29 2.15 2.48l.02 11.74a.5.5.6 0 0 .49.5l3.5.01a.83.53 90 0 0 .53-.83l-.06-12.67q-.02-2.73-2.4-4.13Zm-69.58 16.43c16.01 9.06 16.25-25.22-.02-15.64a.8.49-32.5 0 1-.9.01l-.75-.99a1.79 1.31-1.7 0 0-.83-.57q-3.25-1.09-3.01 2.61.29 4.46-.11 22.2a.63.4-88.3 0 0 .38.64l4.06.16a.73.27-89.1 0 0 .28-.73l.16-7.56a.54.33 21.8 0 1 .74-.13Zm25.22-10.47c-2.94.92-7.61 1.41-9.31 3.83-1.57 2.25-1.18 5.04.89 6.89 2.95 2.64 6.44.53 9.48-.05a1.51 1.13 50.2 0 1 .98.23q1.72 1.08 3.75 1.02a.51.5 86.2 0 0 .48-.56q-.53-6.38-.55-12.74c-.03-6.66-9.2-6.51-13.1-4.12-1.71 1.05-3.07 3.28-.3 4.32a1.38 1.17-43.4 0 0 .94-.05c1.4-.6 8.64-4.74 7.35.6a.93.84-3.7 0 1-.61.63Zm25.77 5.46q-3.1-1.69-4.51 1.11a1.8.78-73.4 0 1-.67.8c-6.32 3.32-6.51-5.86-4.76-9.15q1.51-2.83 3.41-1.3c1.72 1.37 3.78 3.62 6.11 2.23a.95.9 76.8 0 0 .45-.77c.16-5.01-6.82-6.3-10.24-5.02-6.57 2.45-7.91 11.81-2.99 16.42 3.81 3.58 11.56 2.92 13.86-2.63a1.4 1.31 25.6 0 0-.66-1.69Zm39.94.82q-2.34-1.15-3.14 1.12a1.51.6-17 0 1-.86.69q-5.29 2.28-5.85-3.18a1.13.96 86.5 0 1 .93-1.25h10a.86.85-2.2 0 0 .86-.91q-.83-10.35-10.18-9.15c-9.28 1.2-9.49 19.82 3.37 18.17q3.34-.42 5.42-3.47a1.4 1.37 30.4 0 0-.55-2.02Zm-48.7 43.78c1.28.84 9.69 37.35 10.69 41.68a.62.54-5.8 0 0 .59.42h14a.66.63-83.8 0 0 .62-.52c1.17-5.11 9.73-40.9 10.89-41.41a.39.19 85.4 0 1 .25.43l-.4 40.75a.74.64-89.6 0 0 .64.75H164a.76.42-89.4 0 0 .43-.75l.26-67.25a.94.87 0 0 0-.94-.87l-20-.01a1.79 1.17 4.3 0 0-1.65.91l-10.79 41.17q-.08.32-.13.15l-10.93-41.85a.82.38-2.6 0 0-.75-.31l-21.25-.05a.36.29 90 0 0-.29.36l.04 67.5a1.01.75 90 0 0 .75 1.01l13.94-.02a.51.47 88.8 0 0 .47-.53c-.57-13.76-.35-27.47-.59-41.24q-.01-.59.4-.32Zm-43.7 37.36c-8.39 4.3-13.96-2.99-12.96-10.79a1.41 1.34.2 0 0-1.56-1.49l-15.26 1.73a.61.59 89 0 0-.53.57c-1.48 19.81 12.62 29.61 30.77 26.75 18.47-2.91 20.98-17.52 21-33.28q.03-23.09.01-46.21a1.29 1.23 90 0 0-1.23-1.29H73.25a.76.75 0 0 0-.76.75q.05 25.22-.25 50.43c-.03 3.06.04 11.28-2.97 12.83Zm161.02-.26q.61 1.16.67 2.44a.58.57-5.6 0 1-.49.59c-3.43.56-7.16.11-10.19 1.23q-3.18 1.17-6.01 3.07-9.82.63-19.47 2.32c-10.33 1.8-21.46 1.48-31.82 1.5q-.48 0-.92.25c-3.17 1.76-7.12 2.13-10.22 2.97-3.6.99-7.54.01-10.67 2.18a1.67 1.62 26.1 0 1-.92.3q-3.6.06-7.11.73c-5.97 1.15-11.55 1.08-17.39 2.96q-5.97-.48-10.54 3.59c-7.26 2.56-14.53 2.13-22 2.52-4.62.24-7.88-1.52-12.46 1.81-8.84-.31-20.62 6.95-27.72 10.32-3.1 1.47-4.38 3.62-5.73 6.54a1.56 1.55 52.4 0 0-.12.94c1.12 6.13 6.46 7.93 12.35 7.97a1.79 1.3 55.8 0 1 .89.32l2.43 1.72 4.02 1.95q.7.34.88.33l4.26-.19q.52-.03.96.2l3.21 1.6a1.48.67-28.2 0 0 1.05-.07q2.66-.96 5.29 1.04 12.77-1.53 25.5.02a1.86 1.77 66.2 0 1 .89.37c4.04 3.06 7.48 3.1 13.34 2.69q12.86.07 25.44 2.49c4.35.84 9.17.22 13.58-.16q2.86-.24 5.4 1.57c6.69.14 12.69-2.05 19.08-1.82q3.36 1.24 6.79.21c3.57.22 6.7-.84 10.25-.34 6.09.86 13.67-.32 18.96-1.03 4.76-.64 9.54 1.6 14.08.73q9.19-1.76 15.91-1.54 2.83.1 5.41-.5 7.06-1.64 14.36-1.33c3.74.16 7.48-1.72 11.34-2.1 2.61-.25 4.6-1.43 7.1-2 5.06-1.17 9.17-2.95 13.82-4.61 2.7-.97 6.2-.77 9.07-2.68 2.11-1.4 3.23-1.36 5.46-.62a1.11 1.06 38 0 0 .9-.09l5.59-3.39q5.04-.78 7.91-4.86a1.84 1.77-83.4 0 1 .74-.61c4.89-2.06 8.55-5.03 6.89-10.63q-.4-4.78-2.87-9.15-1.07-1.47-.96-3.21l2.53-.52q6.57 9.03 8.31 20.66.12.82.81.61a1.2.53-79.1 0 0 .55-.8l1.79-5.74q.12-.41.02-1-.15-.92.21-1.76a.82.45 32.1 0 1 1.01.06q3.82 2.7 5.21 7.22.6 1.95 1.79.23 1.62-2.37 1.2-5.18-.05-.34-.48-.93-.64-.86-.06-1.95c1.71.02 1.43 3.49 5.11 1.52l1.5-.25c3.17 1.98 2.35-1.38 1.66-2.61q-1.68-3.03-4.31-5.33c-1.23-1.08-4.62-1.85-1.35-4.23 2.63-1.09.18-1.86-.85-1.68q-6.65 1.16-13.15-.82l-.75-.75q21.61-6.33 40.54-18.48 2.47-1.59 6.64-5.61c2.31-2.22-.18-1.89-1.21-1.48q-24.08 9.46-48.5 18.25 2.98-5.15 8.1-7.89 1.6-.86 1.16-2.58.85-5.78.28-9.25-.35-2.07-2.48-2.22a.7.43 2.9 0 0-.75.41l.09 3.81a1.05.33 84.6 0 1-.18.84c-2.22 1.95-1.9-.86-2.42-1.92q-1.45-2.99-2.58-6.09c-.25-.68-1.73-2.24-1.9-.52-.09.94.69 2.18.76 3.25a1.09 1.04-24.3 0 1-.34.84q-4.28 4.09-7.17-1.15-.83-8.54 2.33-16.41a1.41 1.37 87.8 0 1 .61-.68q5.35-2.88 9.75 1.11a.74.7-60.3 0 0 1.15-.35l4.26-12.46a.63.48 24.4 0 0-.34-.64c-6.44-3.4-13.94-4.11-18.53 2.56q-.37.55-.44-.14l-.38-3.57a.99.46-1.2 0 0-.95-.42H312.5a.56.48 90 0 0-.48.56l-.02 32.65-5.76 1.42a1.89 1.86-43.3 0 1-.97-.02l-2.77-.82q-6.45 1.12-12.93-.84a1.66 1.62-71.8 0 0-2.01 1.05l-.92 2.6a1.16.77-.8 0 1-.85.58c-2.8.52-7.1 2.13-9.65.73q-3.9-2.13-4.04-7.18a.45.4 88.6 0 1 .4-.47l30.25-.08a.63.61 1.4 0 0 .63-.58c.69-14.44-5.29-29.33-21.58-30.49-23.45-1.67-29.69 22.78-22.75 40.33a1.56 1.55 72.9 0 1-1.09 2.09l-2.96.68-1.95.34q-.6-.78-.51-4.34a1.02.92-6.5 0 0-1.26-.9l-5.75 1.36a1.26 1.08 79.4 0 1-1.35-1.09c-1.19-7.77-.33-16.58-.57-24.52a.56.39 89.1 0 1 .39-.58l7.57.07a.72.56.9 0 0 .73-.55l.25-11.43a.81.54.8 0 0-.8-.55l-7.57-.07a.7.43 90 0 1-.43-.7l-.01-16.69a.27.26-15.7 0 0-.41-.22l-13 7.49q-1.74 1-1.66 2.66l.34 7.01a.51.48-1.1 0 1-.51.5H223a.74.43 89.4 0 0-.43.75l.25 11.25a.68.42 89 0 0 .43.68l4.49-.17a.99.74-1.1 0 1 1.02.73q-.01 12.49-.19 23.69-.07 4.51 1.72 8.57Zm125.33-58.31.09 10.06a.75.28 89.1 0 0 .3.78l1.06-.16a.88.5 85.7 0 0 .41-.87l-.49-9.5a.73.56 86.5 0 1 .51-.76l4.25-.29q.56-.04.24-.42c-.63-.76-8.56-.75-9.98-.78a.78.57 8.2 0 0-.7.37c-.34.87 3.21.99 3.64 1.08a.82.4 10.2 0 1 .67.49Zm16.84 3.06-1.58 2.43q-.32.5-.37.89c-.55 4.22.71-1.39 2.45-2.57.37 1.02.62 8.49 2.22 7.14a1.17.41 84.3 0 0 .22-.89l-.21-11.25a.54.46-88.3 0 0-.42-.52c-2.25-.22-2.27 3.31-2.31 4.77Zm-7.87-1.64q2.73 3.79 3.53 8.36a1.12.32 81.1 0 0 .46.98l1.17.07a1.05.75-74.9 0 0 .84-.69q.48-1.25-.83-1.36a.78.65 81.5 0 1-.59-.52l-3.1-9.01a.93.35 72.3 0 0-.58-.74l-1.5.24a.85.5 87.6 0 0-.43.81l.01 10.75a.72.47 81.2 0 0 .69.76l.82-.43a.91.57 76.1 0 0 .27-.84l-1.21-8.23q-.15-.99.45-.15ZM188 203.44l30.25.02a.63.61.9 0 0 .63-.59c.42-14-4.64-28.6-20.51-30.35-12.07-1.33-22.35 5.21-25.4 17.23-3.1 12.21-.2 28.69 13.27 33.49 7.44 2.66 17.54 2.17 24.22-2.71 4.16-3.04 5.95-7.12 8.19-11.21a.62.57-70.8 0 0-.39-.9l-14.48-2.12a.78.43-78.4 0 0-.56.66c-2.21 10.24-15.41 6.22-15.65-3.16a.43.35-.6 0 1 .43-.36Z"/><path fill="#863689" d="M52.19 117.88a.78.26 71.2 0 1 .44.57l9.01 22.63q1.13 2.86-1.4 2.49l-3.25-.47a1.05.14 69.7 0 1-.46-.86l-1.59-4.18a1.05.85-8.2 0 0-.94-.56h-8.5a1.04.84 7.7 0 0-.94.57l-1.46 4.01a1.06.02-70.5 0 1-.37.99q-2.42.93-4.99.13a.79.52-70 0 1-.22-.94l9.02-23.5a1.23.45-71.7 0 1 .71-.89l4.94.01Zm-5.69 14.81a.48.48-81.5 0 0 .47.63l5.6-.15a.48.48 78.4 0 0 .43-.66l-3.01-7.37a.48.48-48 0 0-.9.03l-2.59 7.52Z"/><path fill="#f04d5c" d="M140.32 125.63q2.38 1.4 2.4 4.13l.06 12.67a.83.53-90 0 1-.53.83l-3.5-.01a.5.5.6 0 1-.49-.5l-.02-11.74q-.01-2.19-2.15-2.48c-6.82-.92-4.86 9.9-4.82 13.97a.88.53 89.7 0 1-.52.88l-4.06.09a.96.43 89.8 0 1-.44-.97v-23.75a.75.5-90 0 1 .5-.75h3.75a.75.72-90 0 1 .72.75l-.05 7.25q-.01 1.47 1.2.39 3.68-3.27 7.95-.76Z"/><path fill="#b02769" d="m70 142.19-.16 7.56a.73.27-89.1 0 1-.28.73l-4.06-.16a.63.4-88.3 0 1-.38-.64q.4-17.74.11-22.2-.24-3.7 3.01-2.61a1.79 1.31-1.7 0 1 .83.57l.75.99a.8.49-32.5 0 0 .9-.01c16.27-9.58 16.03 24.7.02 15.64a.54.33 21.8 0 0-.74.13Zm4.194-2.542a5.51 4.06 88.3 0 0 3.894-5.628 5.51 4.06 88.3 0 0-4.221-5.388 5.51 4.06 88.3 0 0-3.895 5.628 5.51 4.06 88.3 0 0 4.222 5.388Z"/><path fill="#dc1c55" d="M96.57 130.96c1.29-5.34-5.95-1.2-7.35-.6a1.38 1.17-43.4 0 1-.94.05c-2.77-1.04-1.41-3.27.3-4.32 3.9-2.39 13.07-2.54 13.1 4.12q.02 6.36.55 12.74a.51.5 86.2 0 1-.48.56q-2.03.06-3.75-1.02a1.51 1.13 50.2 0 0-.98-.23c-3.04.58-6.53 2.69-9.48.05-2.07-1.85-2.46-4.64-.89-6.89 1.7-2.42 6.37-2.91 9.31-3.83a.93.84-3.7 0 0 .61-.63Zm-5.81 6.15c-1.17 4.28 5 3.58 6.24-.13q.96-2.85-1.52-2.11l-4.22 1.28a1.23.3-76.2 0 0-.5.96Z"/><path fill="#e71a50" d="M121.73 137.05a1.4 1.31 25.6 0 1 .66 1.69c-2.3 5.55-10.05 6.21-13.86 2.63-4.92-4.61-3.58-13.97 2.99-16.42 3.42-1.28 10.4.01 10.24 5.02a.95.9 76.8 0 1-.45.77c-2.33 1.39-4.39-.86-6.11-2.23q-1.9-1.53-3.41 1.3c-1.75 3.29-1.56 12.47 4.76 9.15a1.8.78-73.4 0 0 .67-.8q1.41-2.8 4.51-1.11Z"/><path fill="#fff" d="m46.5 132.69 2.59-7.52a.48.48-46.5 0 1 .9-.03l3.01 7.37a.48.48 77 0 1-.43.66l-5.6.15a.48.48-82.6 0 1-.47-.63Z"/><path fill="#f1a05f" d="M161.67 137.87a1.4 1.37 30.4 0 1 .55 2.02q-2.08 3.05-5.42 3.47c-12.86 1.65-12.65-16.97-3.37-18.17q9.35-1.2 10.18 9.15a.86.85-2.2 0 1-.86.91h-10a1.13.96 86.5 0 0-.93 1.25q.56 5.46 5.85 3.18a1.51.6-17 0 0 .86-.69q.8-2.27 3.14-1.12Zm-5.14-9.48q-4.98-.98-4.93 4.12a.47.4-2 0 0 .5.39q2.47-.16 4.97-.07 2.88.11 1.41-2.71a3.41 2.2 74.3 0 0-1.95-1.73Z"/><path fill="#fff" d="M156.53 128.39a3.41 2.2 74.3 0 1 1.95 1.73q1.47 2.82-1.41 2.71-2.5-.09-4.97.07a.47.4-2 0 1-.5-.39q-.05-5.1 4.93-4.12Z"/><ellipse fill="#fff" rx="5.51" ry="4.06" transform="rotate(88.3 -32.075 105.2)"/><path fill="#fff" d="M97 136.98c-1.24 3.71-7.41 4.41-6.24.13a1.23.3-76.2 0 1 .5-.96l4.22-1.28q2.48-.74 1.52 2.11Z"/><path fill="#572462" d="M112.57 181.97c.24 13.77.02 27.48.59 41.24a.51.47 88.8 0 1-.47.53l-13.94.02a1.01.75 90 0 1-.75-1.01l-.04-67.5a.36.29-90 0 1 .29-.36l21.25.05a.82.38-2.6 0 1 .75.31l10.93 41.85q.05.17.13-.15l10.79-41.17a1.79 1.17 4.3 0 1 1.65-.91l20 .01a.94.87 0 0 1 .94.87l-.26 67.25a.76.42-89.4 0 1-.43.75h-13.75a.74.64-89.6 0 1-.64-.75l.4-40.75a.39.19 85.4 0 0-.25-.43c-1.16.51-9.72 36.3-10.89 41.41a.66.63-83.8 0 1-.62.52h-14a.62.54-5.8 0 1-.59-.42c-1-4.33-9.41-40.84-10.69-41.68q-.41-.27-.4.32Zm18.35 22.63-12.25-46.69a.97.88-6.5 0 0-.92-.66h-17a.5.45 90 0 0-.45.5l.26 62.69a1.19.9.1 0 0 1.18.89l7.76.07a.99.63.4 0 0 1-.63q.01-24.54-.01-49.07c0-2.44 2.24-2.3 2.77-.16q6.04 24.65 12.26 49.32a.84.73 81.9 0 0 .73.64h10a.72.69 6.7 0 0 .69-.52l12.39-49.96a1.14.41-76.9 0 1 .62-.96l1.74.16a1.06.25 88.6 0 1 .27 1.03c.49 16.56-.14 33.12.1 49.71a.51.44 89.3 0 0 .44.5l9.25.13a.59.57 90 0 0 .57-.59l-.25-63a.58.44.6 0 0-.57-.44l-16.25-.23a1.57 1.5-82.1 0 0-1.48 1.17l-12.17 46.07q-.35 1.31-.68.03Z"/><path fill="#863689" d="M56.31 208.22c-1 7.8 4.57 15.09 12.96 10.79 3.01-1.55 2.94-9.77 2.97-12.83q.3-25.21.25-50.43a.76.75 0 0 1 .76-.75h16.26a1.29 1.23-90 0 1 1.23 1.29q.02 23.12-.01 46.21c-.02 15.76-2.53 30.37-21 33.28-18.15 2.86-32.25-6.94-30.77-26.75a.61.59 89 0 1 .53-.57l15.26-1.73a1.41 1.34.2 0 1 1.56 1.49Zm31.83-31.88c-.07-4.62.2-12.02-.2-18.08a.79.62 87.6 0 0-.63-.74H75.44a.76.39-89.4 0 0-.4.75q-.29 33.72.11 41.98c.44 9.03.3 27.1-14.46 22.1-5.07-1.72-6.71-6.64-7.27-12a.82.59 83.4 0 0-.69-.76l-10.51 1.48a.92.63 85.6 0 0-.53.92q1.02 20.24 21.29 21.52c8.78.56 20.12-3.87 23.03-13q2.2-6.88 2.25-15.26.1-14.46-.12-28.91Z"/><path fill="#572462" d="M253.05 215.8q.51 3.31-.37 6.47a1.11 1.09-4.4 0 1-.6.69q-6.24 2.84-12.88 1.54c-1.54-.3-3.07.05-4.7-.46l-.79-.54q-.41-.73-1.08-1.19a.99.95 15.4 0 1-.45-.75q-.15-1.88-1.89-2.81-1.79-4.06-1.72-8.57.18-11.2.19-23.69a.99.74-1.1 0 0-1.02-.73l-4.49.17a.68.42 89 0 1-.43-.68l-.25-11.25a.74.43 89.4 0 1 .43-.75h5.5a.51.48-1.1 0 0 .51-.5l-.34-7.01q-.08-1.66 1.66-2.66l13-7.49a.27.26-15.7 0 1 .41.22l.01 16.69a.7.43 90 0 0 .43.7l7.57.07a.81.54.8 0 1 .8.55l-.25 11.43a.72.56.9 0 1-.73.55l-7.57-.07a.56.39 89.1 0 0-.39.58c.24 7.94-.62 16.75.57 24.52a1.26 1.08 79.4 0 0 1.35 1.09l5.75-1.36a1.02.92-6.5 0 1 1.26.9q-.09 3.56.51 4.34Zm-3.96-2.06c-2.96.57-7.17 1.04-7.28-3.31q-.33-13.3-.45-26.63a.61.59.9 0 1 .64-.6l7.5.28a.65.42 1.4 0 0 .68-.42l-.23-7.06a.69.53-.9 0 0-.7-.52l-7.5.11a.4.34 89.3 0 1-.35-.4l.14-15.19q.01-.85-.72-.42l-9.42 5.54a1.11.96-17.2 0 0-.55.88l.07 8.25a1.24.91 89.7 0 1-.91 1.25h-4.51a.51.47-89.4 0 0-.47.5l-.11 7.01a.58.48.5 0 0 .58.49h5a.76.5 90 0 1 .5.76q-.03 12.47.19 24.92c.23 12.31 7.84 15.49 18.68 12.06a.97.65-13 0 0 .69-.74l-.22-6.01a1.07.85-7.5 0 0-1.25-.75Z"/><path fill="#d3d3d3" d="M130.92 204.6q.33 1.28.68-.03l12.17-46.07a1.57 1.5-82.1 0 1 1.48-1.17l16.25.23a.58.44.6 0 1 .57.44l.25 63a.59.57 90 0 1-.57.59l-9.25-.13a.51.44 89.3 0 1-.44-.5c-.24-16.59.39-33.15-.1-49.71a1.06.25 88.6 0 0-.27-1.03l-1.74-.16a1.14.41-76.9 0 0-.62.96l-12.39 49.96a.72.69 6.7 0 1-.69.52h-10a.84.73 81.9 0 1-.73-.64q-6.22-24.67-12.26-49.32c-.53-2.14-2.77-2.28-2.77.16q.02 24.53.01 49.07a.99.63.4 0 1-1 .63l-7.76-.07a1.19.9.1 0 1-1.18-.89l-.26-62.69a.5.45 90 0 1 .45-.5h17a.97.88-6.5 0 1 .92.66l12.25 46.69Z"/><path fill="#f2655f" d="M88.14 176.34q.22 14.45.12 28.91-.05 8.38-2.25 15.26c-2.91 9.13-14.25 13.56-23.03 13q-20.27-1.28-21.29-21.52a.92.63 85.6 0 1 .53-.92l10.51-1.48a.82.59 83.4 0 1 .69.76c.56 5.36 2.2 10.28 7.27 12 14.76 5 14.9-13.07 14.46-22.1q-.4-8.26-.11-41.98a.76.39-89.4 0 1 .4-.75h11.87a.79.62 87.6 0 1 .63.74c.4 6.06.13 13.46.2 18.08Z"/><path fill="#47134e" d="M354.95 159.95c-.43-.09-3.98-.21-3.64-1.08a.78.57 8.2 0 1 .7-.37c1.42.03 9.35.02 9.98.78q.32.38-.24.42l-4.25.29a.73.56 86.5 0 0-.51.76l.49 9.5a.88.5 85.7 0 1-.41.87l-1.06.16a.75.28 89.1 0 1-.3-.78l-.09-10.06a.82.4 10.2 0 0-.67-.49Zm18.01 4.3-.5-.75c.04-1.46.06-4.99 2.31-4.77a.54.46-88.3 0 1 .42.52l.21 11.25a1.17.41 84.3 0 1-.22.89c-1.6 1.35-1.85-6.12-2.22-7.14Zm-8.37-2.39q-.6-.84-.45.15l1.21 8.23a.91.57 76.1 0 1-.27.84l-.82.43a.72.47 81.2 0 1-.69-.76l-.01-10.75a.85.5 87.6 0 1 .43-.81l1.5-.24a.93.35 72.3 0 1 .58.74l3.1 9.01a.78.65 81.5 0 0 .59.52q1.31.11.83 1.36a1.05.75-74.9 0 1-.84.69l-1.17-.07a1.12.32 81.1 0 1-.46-.98q-.8-4.57-3.53-8.36Z"/><path fill="#d3d3d3" d="M241.81 210.43c.11 4.35 4.32 3.88 7.28 3.31a1.07.85-7.5 0 1 1.25.75l.22 6.01a.97.65-13 0 1-.69.74c-10.84 3.43-18.45.25-18.68-12.06q-.22-12.45-.19-24.92a.76.5 90 0 0-.5-.76h-5a.58.48.5 0 1-.58-.49l.11-7.01a.51.47-89.4 0 1 .47-.5h4.51a1.24.91 89.7 0 0 .91-1.25l-.07-8.25a1.11.96-17.2 0 1 .55-.88l9.42-5.54q.73-.43.72.42l-.14 15.19a.4.34 89.3 0 0 .35.4l7.5-.11a.69.53-.9 0 1 .7.52l.23 7.06a.65.42 1.4 0 1-.68.42l-7.5-.28a.61.59.9 0 0-.64.6q.12 13.33.45 26.63Z"/><path fill="#949ca5" d="m372.46 163.5.5.75c-1.74 1.18-3 6.79-2.45 2.57q.05-.39.37-.89l1.58-2.43Z"/><path fill="#572462" d="M302.5 207.04c-1.46 8.34-6.52 13.38-14.22 16.06-6.81 2.37-12.46 1.76-19.45-1.23-1.02-.44-1.77-.4-2.82-.39a1.16 1.15-21.4 0 1-.84-.36c-2.66-2.83-4.46-5.64-9.22-5.17q-.29.03-.09-.21.35-.4-.86-.28l2.96-.68a1.56 1.55 72.9 0 0 1.09-2.09c-6.94-17.55-.7-42 22.75-40.33 16.29 1.16 22.27 16.05 21.58 30.49a.63.61 1.4 0 1-.63.58l-30.25.08a.45.4 88.6 0 0-.4.47q.14 5.05 4.04 7.18c2.55 1.4 6.85-.21 9.65-.73a1.16.77-.8 0 0 .85-.58l.92-2.6a1.66 1.62-71.8 0 1 2.01-1.05q6.48 1.96 12.93.84Zm-33.06-6.09 31.06.21a.6.34.9 0 0 .59-.32c.88-16.12-8.94-29.14-25.97-25.82-10.29 2.02-15.36 10.59-16.16 20.69-.92 11.55 2.95 23.21 15.46 26.03 9.89 2.23 21.09-.76 24.99-10.96a.52.44-75.1 0 0-.33-.68l-8.84-1.24a.68.68-73.7 0 0-.71.39q-3.02 6.46-9.25 6.04c-7.14-.48-10.93-6.8-11.2-13.48a.83.39 87.8 0 1 .36-.86Z"/><path fill="#653585" d="m327.29 204.25-.87 19.45q-3.25.82-2.67 4.8.2 1.37 1.25 1.29-5.4 2.99-11.32 4.48c-8.97 2.27-15.02 4.07-23 5.87q-2.08.46-3.89.17a1.05.89-57.9 0 0-.82.26q-.65.57-1.74.84-16.11 3.85-27.98 5.55 1.14-3.04-.27-5.49 3.47-.05 6.18-1.97a.57.56 50 0 1 .73.07q1.24 1.32 1.56-.89 1.55 2.28.98 5.14a.49.48-79.7 0 0 .39.58q5.41.93 6.39-4.15c1.37 2.92 1.99-2.24.87-4q-.21-.34.18-.19c1.85.73 5.25-2.23 7.99-2.23q.4 0 .79-.05c2.64-.33 4.42 1.1 6.76-.1a.92.9 42.4 0 1 .78-.03q1.2.53 2.43.15a.96.79 88 0 0 .57-.74q.54-3.43 3.61-2.55a1.4 1.19 35.2 0 0 .98-.09q1.6-.88 3.29-.15a1.5.39 28.5 0 0 1.05.26l2.23-.56a2.07 1.48-67.2 0 0 .89-.55c.89-.94 4.25-1.66 5.67-2.48a1.84 1.07 19.9 0 1 .95-.17q1.85.13 2.93-1.36a.78.58 48.9 0 0-.06-.8l-1.5-2.26q-.38-.57-.41-.85l-.47-5.24q-.06-.74.01-1.02 1.21-4.35.25-8.78l.02-32.65a.56.48-90 0 1 .48-.56h12.25a.99.46-1.2 0 1 .95.42l.38 3.57q.07.69.44.14c4.59-6.67 12.09-5.96 18.53-2.56a.63.48 24.4 0 1 .34.64l-4.26 12.46a.74.7-60.3 0 1-1.15.35q-4.4-3.99-9.75-1.11a1.41 1.37 87.8 0 0-.61.68q-3.16 7.87-2.33 16.41Zm-3.04-20.2c-.56-.85-.35-6.55-.56-7.93a.72.69 85.7 0 0-.69-.62h-8.25a.81.52-90 0 0-.52.81l.05 43.19a1.94 1.71-89.9 0 0 1.7 1.94l7.84.03a.7.41 89.4 0 0 .41-.71q-.12-12.3.92-24.58c.66-7.74 4.28-15.62 13.68-11.26a.99.79 22.2 0 0 1.29-.38l2.34-7.44a1.38 1.06 20.9 0 0-.87-1.42c-9.22-3.88-12.71 1.37-16.77 8.32a.35.32-47.2 0 1-.57.05Z"/><path fill="#531e5b" d="M187.57 203.8c.24 9.38 13.44 13.4 15.65 3.16a.78.43-78.4 0 1 .56-.66l14.48 2.12a.62.57-70.8 0 1 .39.9c-2.24 4.09-4.03 8.17-8.19 11.21-6.68 4.88-16.78 5.37-24.22 2.71-13.47-4.8-16.37-21.28-13.27-33.49 3.05-12.02 13.33-18.56 25.4-17.23 15.87 1.75 20.93 16.35 20.51 30.35a.63.61.9 0 1-.63.59l-30.25-.02a.43.35-.6 0 0-.43.36Zm27.45 6.31-9.78-1.31a.64.59-78.3 0 0-.65.47q-1.34 4.64-5.4 5.69c-8.75 2.27-13.9-5.37-14.52-13.34a.67.58 87.7 0 1 .58-.73l31.25.39a.39.28-1.3 0 0 .4-.3c-.48-10.44-2.75-20.47-13.13-24.96q-6.83-2.96-14.08-.96c-12.77 3.53-16.25 15.42-15.27 27.26 1.02 12.27 8.73 20.05 20.89 20.01 8.97-.04 16.27-3.11 19.86-11.73a.38.26-72.4 0 0-.15-.49Z"/><path fill="#d3d3d3" d="M215.02 210.11a.38.26-72.4 0 1 .15.49c-3.59 8.62-10.89 11.69-19.86 11.73-12.16.04-19.87-7.74-20.89-20.01-.98-11.84 2.5-23.73 15.27-27.26q7.25-2 14.08.96c10.38 4.49 12.65 14.52 13.13 24.96a.39.28-1.3 0 1-.4.3l-31.25-.39a.67.58 87.7 0 0-.58.73c.62 7.97 5.77 15.61 14.52 13.34q4.06-1.05 5.4-5.69a.64.59-78.3 0 1 .65-.47l9.78 1.31Zm-13.77-26.33q-1.68-1.37-4.16-1.56c-7.89-.62-12.16 5.52-11.97 12.96a.63.59-.9 0 0 .63.57l19.94-.01a.46.33-86.4 0 0 .34-.42q.59-7.15-4.78-11.54Zm67.83 18.03c.27 6.68 4.06 13 11.2 13.48q6.23.42 9.25-6.04a.68.68-73.7 0 1 .71-.39l8.84 1.24a.52.44-75.1 0 1 .33.68c-3.9 10.2-15.1 13.19-24.99 10.96-12.51-2.82-16.38-14.48-15.46-26.03.8-10.1 5.87-18.67 16.16-20.69 17.03-3.32 26.85 9.7 25.97 25.82a.6.34.9 0 1-.59.32l-31.06-.21a.83.39 87.8 0 0-.36.86Zm21.5-6.7c1.12-17.08-21.89-17.38-20.92 0a.67.53 88.2 0 0 .53.62l19.81.03a.69.57-87.9 0 0 .58-.65ZM324.82 184c4.06-6.95 7.55-12.2 16.77-8.32a1.38 1.06 20.9 0 1 .87 1.42l-2.34 7.44a.99.79 22.2 0 1-1.29.38c-9.4-4.36-13.02 3.52-13.68 11.26q-1.04 12.28-.92 24.58a.7.41 89.4 0 1-.41.71l-7.84-.03a1.94 1.71-89.9 0 1-1.7-1.94l-.05-43.19a.81.52-90 0 1 .52-.81H323a.72.69 85.7 0 1 .69.62c.21 1.38 0 7.08.56 7.93a.35.32-47.2 0 0 .57-.05Z"/><path fill="#47134e" d="M201.25 183.78q5.37 4.39 4.78 11.54a.46.33-86.4 0 1-.34.42l-19.94.01a.63.59-.9 0 1-.63-.57c-.19-7.44 4.08-13.58 11.97-12.96q2.48.19 4.16 1.56Zm2.48 9.18c.03-11.46-15.85-11.56-16.16.02a.5.43-88.7 0 0 .43.52h15.25a.54.48 90 0 0 .48-.54Z"/><path fill="#531e5b" d="M269.66 195.11c-.97-17.38 22.04-17.08 20.92 0a.69.57-87.9 0 1-.58.65l-19.81-.03a.67.53 88.2 0 1-.53-.62Zm18.55-2.17c-.61-11.18-15.35-11.46-16.23-.08a.56.47-87.2 0 0 .46.61l15.31.04a.54.47 88.3 0 0 .46-.57Z"/><path fill="#fff" d="M187.57 192.98c.31-11.58 16.19-11.48 16.16-.02a.54.48 90 0 1-.48.54H188a.5.43-88.7 0 1-.43-.52Zm84.41-.12c.88-11.38 15.62-11.1 16.23.08a.54.47 88.3 0 1-.46.57l-15.31-.04a.56.47-87.2 0 1-.46-.61Z"/><path fill="#949ca5" d="m343.98 216.25-3.28.61a1.69.79.4 0 0-.92.42l-3.08 3.42a.55.47-44 0 1-.77.05c-.52-.62 1.94-5.19 2.25-6.41q1.19-1.23.09-2.83c-.27-.38-1.88-6.59-3.03-5.63a1.52 1.19 78.6 0 0-.43.85q-.6 4.37 2.69 7.48-.44.12-.84.04a.94.87 81.7 0 1-.62-.5q-.76-1.6-2.1-.6a1.1.84 73.4 0 0-.34.9q.1 1.13.22 2.25c.21 1.96-.75 3.39-.01 5.46a.93.8 57.1 0 1-.12.86q-2.29 2.82-5.9 3.13.4-2.37-1.37-2.05l.87-19.45q2.89 5.24 7.17 1.15a1.09 1.04-24.3 0 0 .34-.84c-.07-1.07-.85-2.31-.76-3.25.17-1.72 1.65-.16 1.9.52q1.13 3.1 2.58 6.09c.52 1.06.2 3.87 2.42 1.92a1.05.33 84.6 0 0 .18-.84l-.09-3.81a.7.43 2.9 0 1 .75-.41q2.13.15 2.48 2.22.57 3.47-.28 9.25Zm-15.638-3.32a2.06 1.15 95.8 0 0 1.352-1.934 2.06 1.15 95.8 0 0-.936-2.166 2.06 1.15 95.8 0 0-1.352 1.934 2.06 1.15 95.8 0 0 .936 2.165Z"/><path fill="#d3d3d3" d="m338.18 214.34-.68-.13q-3.29-3.11-2.69-7.48a1.52 1.19 78.6 0 1 .43-.85c1.15-.96 2.76 5.25 3.03 5.63q1.1 1.6-.09 2.83Z"/><path fill="#b02769" d="M312 206.46q.96 4.43-.25 8.78-.07.28-.01 1.02l.47 5.24q.03.28.41.85l1.5 2.26a.78.58 48.9 0 1 .06.8q-1.08 1.49-2.93 1.36a1.84 1.07 19.9 0 0-.95.17c-1.42.82-4.78 1.54-5.67 2.48a2.07 1.48-67.2 0 1-.89.55l-2.23.56a1.5.39 28.5 0 1-1.05-.26q-1.69-.73-3.29.15a1.4 1.19 35.2 0 1-.98.09q-3.07-.88-3.61 2.55a.96.79 88 0 1-.57.74q-1.23.38-2.43-.15a.92.9 42.4 0 0-.78.03c-2.34 1.2-4.12-.23-6.76.1q-.39.05-.79.05c-2.74 0-6.14 2.96-7.99 2.23q-.39-.15-.18.19c1.12 1.76.5 6.92-.87 4q.17-3.03-1.56-5.43a.86.4-17.9 0 0-.79-.1l-5.96 1.46a.57.54 83.6 0 0-.41.55q.01 1.19.96 1.95-.32 2.21-1.56.89a.57.56 50 0 0-.73-.07q-2.71 1.92-6.18 1.97-1.4-2.47-2.85-1.06a1.03 1.01-62.8 0 1-.88.29l-2.73-.38a.94.76-.9 0 1-.75-.59q-.43-1.59-1.96-.89a.48.46 57.7 0 0-.15.72q2.22 2.75 1.79 6.26a.86.63-84.1 0 1-.7.77l-5.58-.39a1.34.26 57.8 0 1-.79-.84q-.68-1.04-.67.05.01 1.13-.45.1-.42-.92-.52-.02a.91.27 48.5 0 0 .28.6q1.09 1.47.02 3.41-2.59 1.74-3.36-1.03a.88.41 76.7 0 0-.55-.7q-1.41.11-.29 1.45a1.04.6-18.4 0 1-.96 1.07q-10.05 1.95-20.38 2.75l-1.85-.37q1.8-.91 2.5-2.97a.5.48 17.8 0 1 .61-.3c1.62.53 2.12-.49 1.71-1.91q-1.93-6.53-6.97-11.03l1.5-.5c1.36 1.84 4.56 5.27 7.13 4.68 3.43-.79 1.47-3.88-.15-5.31q-3.4-2.99-7.54-5.1a.98.7-85.1 0 1-.43-.72q-.05-.57-.51-.97l1.25-.08c4.97.26 9.66 7.11 12.28 11.47q1.49 2.48 4.53 1.89 3.25-.64 1.61-3.53-4.06-7.18-11.41-9.55-1.74-.56-2.31-1.77a.73.6 71.8 0 0-.67-.43l-1.74.21.23-.67q2.83-1.9 6.01-3.07c3.03-1.12 6.76-.67 10.19-1.23a.58.57-5.6 0 0 .49-.59q-.06-1.28-.67-2.44 1.74.93 1.89 2.81a.99.95 15.4 0 0 .45.75q.67.46 1.08 1.19c-1.08.13-6.6-.1-6.29 1.19a.9.78 4.9 0 0 .57.59l3 1a1.2.71 9.3 0 1 .73.61c1.01 3.43 4.64 7.5 6.75 11.47a.74.59 67.6 0 0 .72.4q.79-.18 1-1.07a.9.55-83 0 1 .55-.69q.79-.09 1.27.5a.67.64 60.9 0 0 .71.22q2.05-.69.72-2.68-3.94-5.9-8.94-11c1.63.51 3.16.16 4.7.46q6.64 1.3 12.88-1.54a1.11 1.09-4.4 0 0 .6-.69q.88-3.16.37-6.47l1.95-.34q1.21-.12.86.28-.2.24.09.21c4.76-.47 6.56 2.34 9.22 5.17a1.16 1.15-21.4 0 0 .84.36c1.05-.01 1.8-.05 2.82.39 6.99 2.99 12.64 3.6 19.45 1.23 7.7-2.68 12.76-7.72 14.22-16.06l2.77.82a1.89 1.86-43.3 0 0 .97.02l5.76-1.42Zm-79.13 27.85q-2.6-4.2-5.45-8.25a1.87 1.58 78.8 0 0-.79-.63q-3.55-1.34-7.38-1.43a1.23.25-40.7 0 0-.84.47c-2.08 1.64 1.2 2.2 2.49 2.99a1.89 1.48-24.3 0 0 .93.23c4.39-.07 6.56 6.75 10.25 8.37q2.56 1.13.79-1.75Z"/><path fill="#23201f" d="M337.25 234.04q-2.55-.22-4.5 1.42-2.48.24-3.72 1.31l-2.53.52q-27.43 6.6-54.84 13.3c-2.87.71-7.19 1.01-10.7 2.42q-.45.19-.95.14c-3.11-.26-6.57 1.1-8.85 1.4q-4.79.64-9.54 1.55c-3.74.72-8.43.76-12.62 1.94q-3.11-.24-6.03.82-.49.17-.97.09c-3.24-.5-7.95.76-11.38 1.42-2.69.52-5.56.02-7.81.15q-11.86.67-23.73 1.42c-10.46.67-21.02.36-31.47.75l-3.09.55q-28.28-.02-37.46.57-12.66.82-15.45.85-3.51-.99-6.64.16a1.9.91 24.5 0 1-.94.02l-1.53-.3q-4.4-.62-7.98 1.02-4.18-2.03-9.16-1.28a.29.16-10.4 0 1-.3-.1L65 264a.49.39-9.6 0 0-.5-.27l-5 .54a1.53 1.02-61.2 0 0-.81.42l-.76.75a.83.69 32.6 0 1-.86.11q-1.03-.44-2.07-.09l-2.55.05a1.23.46 4 0 0-.9.27q-1.6 1.93-3.1.04a.92.82-24.2 0 0-.87-.27l-1.08.24q-2.31-.09-2.21-2.04 1.85-.04 3.64.29c2.07.37 4.08-1.49.94-2.19q-4.96-1.12-.12-1.36a.88.8 70.3 0 1 .75.4q1.47 2.27 4.25 1.9-.24 2.64 2 .67 1.79.4 2.79-1.21l6.22-.04a1.21.23-2.7 0 1 .9.13q1.24.9 2.55.11.21-.13 1.02-.24l5.31-.71.96-.29 7.75.25 1.75-.25 5.84-.31q1.31.63 5.68.16 10.22-1.09 28.45-1.13a.79.61 5.5 0 0 .73-.46q.22-.86-.76-2.08 6.65 2.47 13.56 1.4l4.25-.08 11-.75q8.46.74 16.74-.84a1.21 1.06 51 0 1 .75.13q2.03 1.07 3.75-.25a3.76 1.11 11.9 0 1 2.84-.23c4.37.59 8.32-.72 12.35-.73q6.08-.02 12.01-1.16l12.31-1.84q10.33-.8 20.38-2.75a1.04.6-18.4 0 0 .96-1.07q-1.12-1.34.29-1.45a.88.41 76.7 0 1 .55.7q.77 2.77 3.36 1.03l16.21-2.54q11.87-1.7 27.98-5.55 1.09-.27 1.74-.84a1.05.89-57.9 0 1 .82-.26q1.81.29 3.89-.17c7.98-1.8 14.03-3.6 23-5.87q5.92-1.49 11.32-4.48 1.53.06 2.75-.83l6.97-2.24q24.42-8.79 48.5-18.25c1.03-.41 3.52-.74 1.21 1.48q-4.17 4.02-6.64 5.61-18.93 12.15-40.54 18.48Z"/><ellipse fill="#e7e7eb" rx="2.06" ry="1.15" transform="rotate(95.8 69.003 253.874)"/><path fill="#7d8792" d="m337.5 214.21.68.13c-.31 1.22-2.77 5.79-2.25 6.41a.55.47-44 0 0 .77-.05l3.08-3.42a1.69.79.4 0 1 .92-.42l3.28-.61q.44 1.72-1.16 2.58-5.12 2.74-8.1 7.89l-6.97 2.24.04-3.21q3.61-.31 5.9-3.13a.93.8 57.1 0 0 .12-.86c-.74-2.07.22-3.5.01-5.46q-.12-1.12-.22-2.25a1.1.84 73.4 0 1 .34-.9q1.34-1 2.1.6a.94.87 81.7 0 0 .62.5q.4.08.84-.04Z"/><path fill="#dc1c55" d="m233.71 223.5.79.54q5 5.1 8.94 11 1.33 1.99-.72 2.68a.67.64 60.9 0 1-.71-.22q-.48-.59-1.27-.5a.9.55-83 0 0-.55.69q-.21.89-1 1.07a.74.59 67.6 0 1-.72-.4c-2.11-3.97-5.74-8.04-6.75-11.47a1.2.71 9.3 0 0-.73-.61l-3-1a.9.78 4.9 0 1-.57-.59c-.31-1.29 5.21-1.06 6.29-1.19Z"/><path fill="#fff" d="M326.42 223.7q1.77-.32 1.37 2.05l-.04 3.21q-1.22.89-2.75.83-1.05.08-1.25-1.29-.58-3.98 2.67-4.8Z"/><path fill="#e71a50" d="M232.87 234.31q1.77 2.88-.79 1.75c-3.69-1.62-5.86-8.44-10.25-8.37a1.89 1.48-24.3 0 1-.93-.23c-1.29-.79-4.57-1.35-2.49-2.99a1.23.25-40.7 0 1 .84-.47q3.83.09 7.38 1.43a1.87 1.58 78.8 0 1 .79.63q2.85 4.05 5.45 8.25Z"/><path fill="#a82d67" d="m214.27 226.08-.23.67q-1.63.3-2.29 1.71l-1.25.08q-6.03-.86-7.82-.12c-2.52 1.05-.76 2.51.7 2.69q5.29.64 8.62 4.85l-1.5.5q-1.8-2.11-4.43-2.05a1.23.5-6.3 0 1-.99-.28l-1.17-1.8q-.38-.59-.59.05l-.61 1.82a.89.46-65.2 0 0 .03.75c3.09 3.72 6.43 8.19 7.79 12.91a1.03.83 5.6 0 0 .62.61c1.55.57.32 2.73 1.5 4.2l1.85.37-12.31 1.84q-4.54-1.3-9.2-.35-.35.07-.74.61a.49.48-54.8 0 1-.67.12c-1.47-1.04-2.86-1.4-4.16-2.67q-3.6-3.48-7.76-6.3-.36-.25-.66-.72c-3.8-5.94-11.06-11.61-17-12.28q-2.16-.27-4.15.35-2.38-1.3-4.35.16-1.86 1.38-3.75.99-4.61-.2-8.53 2.02-.22.12-.98.2l-3.99.46q-.82.09-.03.47l5.53 2.6 3.75 4.17q-1.53-.35-2.67-1.28a.66.52-38.5 0 0-.69 0l-5.9 3.6a1.02.9 56.4 0 0-.19 1.39l2.66 3.83q-6.01-7.37-13.52-13.21-3.87-1.3-6.65 1.21-2.43 1.25-2.79-.96c5.84-1.88 11.42-1.81 17.39-2.96q3.51-.67 7.11-.73a1.67 1.62 26.1 0 0 .92-.3c3.13-2.17 7.07-1.19 10.67-2.18 3.1-.84 7.05-1.21 10.22-2.97q.44-.25.92-.25c10.36-.02 21.49.3 31.82-1.5q9.65-1.69 19.47-2.32Zm-29.28 6.78q-3.76 1.03-6.73-1.3a2.33.48 39.6 0 0-1.77-.94l-2.99.73q-.94.23.11.97c1.64 1.15 3.58 1.85 4.97 3.21q5.79 5.68 11.52 11.44a1.19.57-14 0 0 .89.18l6-.65q2.75-.3 1.51-1.98-5.1-6.9-13.12-10-.69-.27-.14-.8.84-.8 2.84.44 8 4.95 14.94 11.31 1.8 1.64 2.29-.45l.76-3.25a1.24.58 40.2 0 0-.42-.92l-5.47-5.79a1.04.61 37.8 0 1-.31-.78c.48-2.19-5.04-2.95-6.65-3.48a1.56.5 24.7 0 0-.99-.12q-2.95.9-5.97.24a.87.03-27.3 0 0-.76.36q-.77.39-.22 1.21a.36.22-20.8 0 1-.29.37Z"/><path fill="#dc1c55" d="M211.75 228.46q.66-1.41 2.29-1.71l1.74-.21a.73.6 71.8 0 1 .67.43q.57 1.21 2.31 1.77 7.35 2.37 11.41 9.55 1.64 2.89-1.61 3.53-3.04.59-4.53-1.89c-2.62-4.36-7.31-11.21-12.28-11.47Z"/><path fill="#dc1c55" d="M210.5 228.54q.46.4.51.97a.98.7-85.1 0 0 .43.72q4.14 2.11 7.54 5.1c1.62 1.43 3.58 4.52.15 5.31-2.57.59-5.77-2.84-7.13-4.68q-3.33-4.21-8.62-4.85c-1.46-.18-3.22-1.64-.7-2.69q1.79-.74 7.82.12Zm-25.22 3.95q-.55-.82.22-1.21a.87.03-27.3 0 1 .76-.36q3.02.66 5.97-.24a1.56.5 24.7 0 1 .99.12c1.61.53 7.13 1.29 6.65 3.48a1.04.61 37.8 0 0 .31.78l5.47 5.79a1.24.58 40.2 0 1 .42.92l-.76 3.25q-.49 2.09-2.29.45-6.94-6.36-14.94-11.31-2-1.24-2.84-.44-.55.53.14.8 8.02 3.1 13.12 10 1.24 1.68-1.51 1.98l-6 .65a1.19.57-14 0 1-.89-.18q-5.73-5.76-11.52-11.44c-1.39-1.36-3.33-2.06-4.97-3.21q-1.05-.74-.11-.97l2.99-.73a2.33.48 39.6 0 1 1.77.94q2.97 2.33 6.73 1.3a.36.22-20.8 0 0 .29-.37Z"/><path fill="#dc1c55" d="M210.5 236.46q5.04 4.5 6.97 11.03c.41 1.42-.09 2.44-1.71 1.91a.5.48 17.8 0 0-.61.3q-.7 2.06-2.5 2.97c-1.18-1.47.05-3.63-1.5-4.2a1.03.83 5.6 0 1-.62-.61c-1.36-4.72-4.7-9.19-7.79-12.91a.89.46-65.2 0 1-.03-.75l.61-1.82q.21-.64.59-.05l1.17 1.8a1.23.5-6.3 0 0 .99.28q2.63-.06 4.43 2.05Z"/><path fill="#ce215b" d="M157.85 233.64q-.86 1.07-1.06 2.11c-3.31 1.77.07 1.85.99 2.45 3.23 2.14 12.94 7.96 11.43 12.33-1.32 3.8-3.99 1.92-5.81.01q-6.01-6.29-12.7-11.81 4.3-1.93-.95-3.94 1.89.39 3.75-.99 1.97-1.46 4.35-.16Z"/><path fill="#e71a50" d="M162 233.29q-.67 2.32 1.29 1.95a1.34 1.19-33.2 0 1 .89.13q4.88 2.74 8.09 7.36 1.45 2.09-1.03 1.32-3.1-.95-6.03-2.27c-1.85-.84-4.62-5.03-8.42-6.03q.2-1.04 1.06-2.11 1.99-.62 4.15-.35Z"/><path fill="#78347b" d="M162 233.29c5.94.67 13.2 6.34 17 12.28q.3.47.66.72 4.16 2.82 7.76 6.3c1.3 1.27 2.69 1.63 4.16 2.67a.49.48-54.8 0 0 .67-.12q.39-.54.74-.61 4.66-.95 9.2.35-5.93 1.14-12.01 1.16c-4.03.01-7.98 1.32-12.35.73a3.76 1.11 11.9 0 0-2.84.23q-1.72 1.32-3.75.25a1.21 1.06 51 0 0-.75-.13q-8.28 1.58-16.74.84c1.23-2.39-1.38-3.26-1.46-5.21l2.43 3.04q1.22 1.52 2.82 1.03c2.11-.66 7.95.28 8.37-1.56a.94.82 29.9 0 0-.29-.84c-3.79-3.56-10.76-12.2-15.33-13.6a1.69 1.39 75.5 0 1-.77-.56q-1.35-1.75-3.34-.97-1.43-.97-1.48-2.04a.4.39 8.1 0 1 .53-.39l5.47 1.87q6.69 5.52 12.7 11.81c1.82 1.91 4.49 3.79 5.81-.01 1.51-4.37-8.2-10.19-11.43-12.33-.92-.6-4.3-.68-.99-2.45 3.8 1 6.57 5.19 8.42 6.03q2.93 1.32 6.03 2.27 2.48.77 1.03-1.32-3.21-4.62-8.09-7.36a1.34 1.19-33.2 0 0-.89-.13q-1.96.37-1.29-1.95Z"/><path fill="#4e4d4d" d="m337.25 234.04.75.75c.16.85 1.42 3.26.71 3.78a.91.74 40.6 0 1-.93-.02l-5.03-3.09q1.95-1.64 4.5-1.42Z"/><path fill="#693492" d="M272.21 240.25q-.98 5.08-6.39 4.15a.49.48-79.7 0 1-.39-.58q.57-2.86-.98-5.14-.95-.76-.96-1.95a.57.54 83.6 0 1 .41-.55l5.96-1.46a.86.4-17.9 0 1 .79.1q1.73 2.4 1.56 5.43Z"/><path fill="#f2655f" d="M149.75 234.79q5.25 2.01.95 3.94l-5.47-1.87a.4.39 8.1 0 0-.53.39q.05 1.07 1.48 2.04-1.9 1.25-4.43 1.25l-5.53-2.6q-.79-.38.03-.47l3.99-.46q.76-.08.98-.2 3.92-2.22 8.53-2.02Z"/><path fill="#7d8792" d="M338 234.79q6.5 1.98 13.15.82c1.03-.18 3.48.59.85 1.68q-1.75-.42-3.11.36a.76.52 69.5 0 0-.19.78q.66 2.39-1.3.33-1.14-1.2-4.22.35-.65.32-.94.88a.78.3 11.9 0 0 .76.49c1.68.3 5.88 6.89 6.39 7.71q-.58 1.09.06 1.95.43.59.48.93.42 2.81-1.2 5.18-1.19 1.72-1.79-.23-1.39-4.52-5.21-7.22a.82.45 32.1 0 0-1.01-.06q-.36.84-.21 1.76.1.59-.02 1l-1.79 5.74a1.2.53-79.1 0 1-.55.8q-.69.21-.81-.61-1.74-11.63-8.31-20.66 1.24-1.07 3.72-1.31l5.03 3.09a.91.74 40.6 0 0 .93.02c.71-.52-.55-2.93-.71-3.78Zm1.44 8.65c-1.24.94 6.41 6.46 6.86 7.43.43.9 1.24 6.12 2.88 1.82a2.25 2.25 36.9 0 0-.31-2.17c-.7-.9-8.88-12.06-9.43-7.08Zm-.55 9.32c.31-2.09 1.09-5.93-1.07-6.11a.6.34 5.1 0 1-.58-.4q.16-1.34-.95-2.06-.95-.62-.44.73 1.34 3.59 1.45 7.18c.02.89 1.2 3.36 1.59.66Z"/><path fill="#7d388a" d="M326.5 237.29q-.11 1.74.96 3.21-2.39-.23-2.13 1.72a.46.33 87.8 0 1-.35.52q-1.41-.15-1.42 1.28-.01 1.18-.4.05-1.45-4.09-4.7-1.05a1.51 1.51-72.8 0 1-.7.37q-9.98 2.16-12.78 2.94-2.95.83-4.2 3.99-.17.42-.35.01c-1.58-3.6-5.24 6.27-5.61 7.12a.73.71-75.4 0 1-.71.43c-2.8-.26-4-2.12-6.99-.63a1.87 1.59-51.8 0 1-.93.19q-2.49-.21-4.92.29c-3.56.73-6.5-.09-10.07.93a.75.59 58 0 1-.69-.25q-.26-.28-.52-.12-.51.33-.74.35l-6.44.56a1.24.71-68.7 0 0-.76.61q-.49.84-1.56.94a.55.44 88.1 0 1-.48-.56c-.04-4.38-5.56-3.16-7.97-2.88a.28.27-81.8 0 1-.27-.38c.66-1.65-2.3-1.05-3.01-.39q-1.74 1.61-3.13 3.61-1.21 1.75-4.63.11-3.17-1.52-3.35 2.1a1.14.33-88.7 0 1-.31.99l-1.08.42a.57.54-23.6 0 1-.7-.25q-2.01-3.95-4.2-.41a1.52.97-1.6 0 1-.81.55c-3.37 1.01 1.77-3.77-2.55-4.7l1-.92c4.19-1.18 8.88-1.22 12.62-1.94q4.75-.91 9.54-1.55c2.28-.3 5.74-1.66 8.85-1.4q.5.05.95-.14c3.51-1.41 7.83-1.71 10.7-2.42q27.41-6.7 54.84-13.3Z"/><path fill="#949ca5" d="M352 237.29c-3.27 2.38.12 3.15 1.35 4.23q2.63 2.3 4.31 5.33c.69 1.23 1.51 4.59-1.66 2.61q-.19-2.33-2.5-2.67a.86.67 83.5 0 1-.6-.61q-1.06-3.91-2.76.04a.54.49 22.9 0 0 .31.67q2.4.95 4.05 2.82c-3.68 1.97-3.4-1.5-5.11-1.52-.51-.82-4.71-7.41-6.39-7.71a.78.3 11.9 0 1-.76-.49q.29-.56.94-.88 3.08-1.55 4.22-.35 1.96 2.06 1.3-.33a.76.52 69.5 0 1 .19-.78q1.36-.78 3.11-.36Z"/><path fill="#f1a05f" d="M125.19 239.04q-.03 1.8 1.33 2.33.56.22.81.53l1.8 2.2a.39.32-22.5 0 1-.29.54l-1.82.33q-3.33-3.91-8.48-4.72 2.78-2.51 6.65-1.21Z"/><path fill="#693492" d="M255.98 241.47q1.41 2.45.27 5.49l-16.21 2.54q1.07-1.94-.02-3.41a.91.27 48.5 0 1-.28-.6q.1-.9.52.02.46 1.03.45-.1-.01-1.09.67-.05a1.34.26 57.8 0 0 .79.84l5.58.39a.86.63-84.1 0 0 .7-.77q.43-3.51-1.79-6.26a.48.46 57.7 0 1 .15-.72q1.53-.7 1.96.89a.94.76-.9 0 0 .75.59l2.73.38a1.03 1.01-62.8 0 0 .88-.29q1.45-1.41 2.85 1.06Z"/><path fill="#dc1c55" d="M146.18 239.29q1.99-.78 3.34.97a1.69 1.39 75.5 0 0 .77.56c4.57 1.4 11.54 10.04 15.33 13.6a.94.82 29.9 0 1 .29.84c-.42 1.84-6.26.9-8.37 1.56q-1.6.49-2.82-1.03l-2.43-3.04q-2.75-4.56-6.79-8.04l-3.75-4.17q2.53 0 4.43-1.25Z"/><path fill="#b02769" d="M115.75 239.29q.36 2.21 2.79.96 5.15.81 8.48 4.72l9.55 13.29a1.17.91 69.5 0 0 .77.47l1.16.06q-6.91 1.07-13.56-1.4l-.44-.35c-5.02-5.93-8.27-9.58-15.5-10.08q.11-.42 0-.79a.75.58-8 0 0-.72-.41q-3.69.23-3.07-2.88 4.57-4.07 10.54-3.59Z"/><path fill="#dc1c55" d="M125.19 239.04q7.51 5.84 13.52 13.21l2.3 3.04q.26.34.78.57 1.78.76.96 2.85l-4.25.08-1.16-.06a1.17.91 69.5 0 1-.77-.47l-9.55-13.29 1.82-.33a.39.32-22.5 0 0 .29-.54l-1.8-2.2q-.25-.31-.81-.53-1.36-.53-1.33-2.33Zm202.27 1.46q2.47 4.37 2.87 9.15-.43 7.85-8.04 8.61-1.68.16-8.54 2.53l-2.75.5q-6.11.52-9.75 3.21-2.03 1.5-3.04 5.25c-3.63 1.53-.57-2.73.05-3.35a1.02.93-28.2 0 0 .29-.83c-.11-.83-.47-7.17-2.12-6.33a.89.81 77.2 0 0-.43.76l.01 4a1.45 1.26-27.8 0 1-.34.88q-2.5 3.04-3.96 6.63a1.17 1.01-83.6 0 1-.72.67q-2.77.72-1.63-1.31a.3.13 9.9 0 0-.31-.21l-1.3-.13a1.74 1.29-52 0 0-.97.27l-5.33 3.41a.87.36-32.3 0 1-.94.16q-.81-1.4.88-2.29 1.69-.88-.08-.82l-4.56.15a1.37.55-62.3 0 0-.83.71q-4.51 6.85-12.69 7.33-1.06.07-1.39-.93a.75.6-28.3 0 1 .32-.75q1.58-1.09 1.55-3.02.26-.53.19-1.03a.75.62.1 0 0-.65-.54q-1.71-.17-3.39.19c-2.3.49-3.52 2.39-5.63 3.63q-4.99 5.33-12.25 4.23-.88-.13-.24-.54 4.23-2.72 5.55-7.62.29-1.04-.33-.67-2.74 1.65-5.79.74a1.15.91-51.9 0 0-.94.23q-1.52 1.23-1.19 3.13l-3.58 3.8q-2.63 1.95-5.98.91-1.21-.38-.99-1.17a.25.23-84.6 0 0-.24-.32l-2.5.33a.99.04-6.9 0 0-.93.15q-1.14.95-2.65.91-.04 0-.87-.46-1.25-.7-2.26.38-.02.02-1.07.35l-5.17 1.64a1.07.26-20 0 1-.9.1q-1.56-1.12-3.11-.06a1.17.19 11.3 0 1-1-.04c-3.48-.6-6.15 1.39-8.78.38a.33.32-56.1 0 1-.1-.55q2.09-1.92 4.53-3.29c5.03-2.82 8.12-7.16 10.52-12.31q-.13-2.53 1.57-3.67a1.1.42-89.3 0 0 .31-.78l.13-1.3a1.43.92 81.5 0 1 .39-.87q2.22-1.87 4.86-.59a1.25.49 22.1 0 1 .81.77l.02 1.94a1.1.41-86.1 0 0 .25.85c1.48 1.07 1.51-2.94 1.52-3.51q.05-2.38 1.93-1.33 1.03.58 2.25.2c4.32.93-.82 5.71 2.55 4.7a1.52.97-1.6 0 0 .81-.55q2.19-3.54 4.2.41a.57.54-23.6 0 0 .7.25l1.08-.42a1.14.33-88.7 0 0 .31-.99q.18-3.62 3.35-2.1 3.42 1.64 4.63-.11 1.39-2 3.13-3.61c.71-.66 3.67-1.26 3.01.39a.28.27-81.8 0 0 .27.38c2.41-.28 7.93-1.5 7.97 2.88a.55.44 88.1 0 0 .48.56q1.07-.1 1.56-.94a1.24.71-68.7 0 1 .76-.61l6.44-.56q.23-.02.74-.35.26-.16.52.12a.75.59 58 0 0 .69.25c3.57-1.02 6.51-.2 10.07-.93q2.43-.5 4.92-.29a1.87 1.59-51.8 0 0 .93-.19c2.99-1.49 4.19.37 6.99.63a.73.71-75.4 0 0 .71-.43c.37-.85 4.03-10.72 5.61-7.12q.18.41.35-.01 1.25-3.16 4.2-3.99 2.8-.78 12.78-2.94a1.51 1.51-72.8 0 0 .7-.37q3.25-3.04 4.7 1.05.39 1.13.4-.05.01-1.43 1.42-1.28a.46.33 87.8 0 0 .35-.52q-.26-1.95 2.13-1.72Z"/><path fill="#d3d3d3" d="M339.44 243.44c.55-4.98 8.73 6.18 9.43 7.08a2.25 2.25 36.9 0 1 .31 2.17c-1.64 4.3-2.45-.92-2.88-1.82-.45-.97-8.1-6.49-6.86-7.43Z"/><path fill="#cc846e" d="M105.21 242.88q-.62 3.11 3.07 2.88a.75.58-8 0 1 .72.41q.11.37 0 .79l-5.5 1.58q-6.33-3.55-12.5-.22a1.25 1.15 36.8 0 1-.91.09q-2.3-.65-.61 2.16l-5.77-2.38a.95.52 89.3 0 1-.4-.71c-.22-1.46-9.68-.78-10.06.23l-2.5-.5c4.58-3.33 7.84-1.57 12.46-1.81 7.47-.39 14.74.04 22-2.52Z"/><path fill="#693492" d="M145.5 244.71q4.04 3.48 6.79 8.04c.08 1.95 2.69 2.82 1.46 5.21l-11 .75q.82-2.09-.96-2.85-.52-.23-.78-.57l-2.3-3.04-2.66-3.83a1.02.9 56.4 0 1 .19-1.39l5.9-3.6a.66.52-38.5 0 1 .69 0q1.14.93 2.67 1.28Z"/><path fill="#e7e7eb" d="M338.89 252.76c-.39 2.7-1.57.23-1.59-.66q-.11-3.59-1.45-7.18-.51-1.35.44-.73 1.11.72.95 2.06a.6.34 5.1 0 0 .58.4c2.16.18 1.38 4.02 1.07 6.11Zm17.11-3.3-1.5.25q-1.65-1.87-4.05-2.82a.54.49 22.9 0 1-.31-.67q1.7-3.95 2.76-.04a.86.67 83.5 0 0 .6.61q2.31.34 2.5 2.67Z"/><path fill="#f1a05f" d="M89.48 250.57q4.64 3.02-1.26 2.67-.41-.02-.96.18c-2.49.9-11.43-4.39-14.01-5.71.38-1.01 9.84-1.69 10.06-.23a.95.52 89.3 0 0 .4.71l5.77 2.38Z"/><path fill="#ce215b" d="M103.5 248.54q6.32 4.06 11.36 9.67a1.58 1.44 71.8 0 0 .83.47c1.85.36 8.74.99 8.81-1.64l.44.35q.98 1.22.76 2.08a.79.61 5.5 0 1-.73.46q-18.23.04-28.45 1.13-4.37.47-5.68-.16-4.73-4.61-11.25-8.26-3.25-1.82-5.84-2.76-.43-.16-.81-.54-1.89-1.91-4.48-.34c-.48.27-6.9 1.83-4.52 2.9q5 2.24 8.75 6.23.3.32.81.5 1.82.63 2 2.58l-.96.29-12.51-9.54q-1.28-.99-4.28-.25-5.76 1.42-10.06 5.36c-2.22 2.03-7.15 2.99-8.19 4.73q-.26.42.26.43 2.56.02 4.53 1.52-.1 1.95 2.21 2.04-3.32 2.32-6.25.23a.95.31 33.2 0 0-1.09-.29l-.22 1.29q-.34 1.97 1.87 2.7l7.91 2.6q2.93-.33 4.13 2.7l-2.43-1.72a1.79 1.3 55.8 0 0-.89-.32c-5.89-.04-11.23-1.84-12.35-7.97a1.56 1.55 52.4 0 1 .12-.94c1.35-2.92 2.63-5.07 5.73-6.54 7.1-3.37 18.88-10.63 27.72-10.32l2.5.5c2.58 1.32 11.52 6.61 14.01 5.71q.55-.2.96-.18 5.9.35 1.26-2.67-1.69-2.81.61-2.16a1.25 1.15 36.8 0 0 .91-.09q6.17-3.33 12.5.22Z"/><path fill="#e71a50" d="M109 246.96c7.23.5 10.48 4.15 15.5 10.08-.07 2.63-6.96 2-8.81 1.64a1.58 1.44 71.8 0 1-.83-.47q-5.04-5.61-11.36-9.67l5.5-1.58Z"/><path fill="#efcc7b" d="m90.84 260.9-5.84.31c-.47-1.65-1.77-2.24-2.64-3.16q-5.49-5.8-13.56-7.76l-.34-1.29q2.59-1.57 4.48.34.38.38.81.54 2.59.94 5.84 2.76 6.52 3.65 11.25 8.26Z"/><path fill="#f4db7d" d="m68.46 249 .34 1.29q4.72 3.48 9.87 6.3 1.04.57 2.57 2.98a1.36 1.05-4 0 0 .75.5q1.08.29 1.26 1.39l-7.75-.25q-.18-1.95-2-2.58-.51-.18-.81-.5-3.75-3.99-8.75-6.23c-2.38-1.07 4.04-2.63 4.52-2.9Z"/><path fill="#d77162" d="M330.33 249.65c1.66 5.6-2 8.57-6.89 10.63a1.84 1.77-83.4 0 0-.74.61q-2.87 4.08-7.91 4.86l-1.34-.99a.71.63-62.9 0 1-.2-.79q.58-1.52.5-3.18 6.86-2.37 8.54-2.53 7.61-.76 8.04-8.61Z"/><path fill="#9d8360" d="M68.8 250.29q8.07 1.96 13.56 7.76c.87.92 2.17 1.51 2.64 3.16l-1.75.25q-.18-1.1-1.26-1.39a1.36 1.05-4 0 1-.75-.5q-1.53-2.41-2.57-2.98-5.15-2.82-9.87-6.3Z"/><path fill="#efcc7b" d="m74.54 261.5-5.31.71q-.81.11-1.02.24-1.31.79-2.55-.11a1.21.23-2.7 0 0-.9-.13l-6.22.04c-1.15-.73-5.41-4.25-6.46-3.51q-.43.31.08.51c1.7.65 4.38 1.66 3.55 4l-1.96-.46q-2.78.37-4.25-1.9a.88.8 70.3 0 0-.75-.4q-4.84.24.12 1.36c3.14.7 1.13 2.56-.94 2.19q-1.79-.33-3.64-.29-1.97-1.5-4.53-1.52-.52-.01-.26-.43c1.04-1.74 5.97-2.7 8.19-4.73q4.3-3.94 10.06-5.36 3-.74 4.28.25l12.51 9.54Z"/><path fill="#653585" d="m229 258.04-1 .92q-1.22.38-2.25-.2-1.88-1.05-1.93 1.33c-.01.57-.04 4.58-1.52 3.51a1.1.41-86.1 0 1-.25-.85l-.02-1.94a1.25.49 22.1 0 0-.81-.77q-2.64-1.28-4.86.59a1.43.92 81.5 0 0-.39.87l-.13 1.3a1.1.42-89.3 0 1-.31.78q-1.7 1.14-1.57 3.67l-1.92-.25q.25-1.42-.42-2.32a.99.16 7.3 0 0-.81-.24q-1.48-.23-2.78.27a.72.44-20.1 0 1-.86-.17q-1.14-3.85-5.18-2.47a1.19 1.03-3.9 0 0-.74.73q-.6 2.1-2.69 2.73a1.89.78-27.5 0 1-1.04.09q-4.09-1.14-8.33-.16a1.17.46-7.1 0 0-.78.43q-.74 1.46-2.15.91a.61.47 30.7 0 1-.34-.86l2.1-1.93a1.1.05-42.6 0 0 .76-.76l-.17-.83a.97.51-1 0 0-.87-.44q-3.36-.09-5.82 2.19a1.66 1.24-61.9 0 1-.87.41c-2.46.18-3.94 3.78-6.06 1.15a1.06.37-5.5 0 0-.82-.2q-2.15.05-3.76 1.37-.93.76-.67-.14.09-.29.33-.44.35-.22-.02-.37-1-.4-1.21-1.55a1.11.73 16 0 0-.56-.65c-4.5-2.45-8.03 3.23-10.96 5.88a1.39.97-58.4 0 1-.82.36q-2.61.05-4.17 2.11a.93.62-47.6 0 1-1.23.3q-1.66-2.3-4.54-1.98a.53.22-5.1 0 1-.57-.18l.02-.99a1.46 1.34 67.5 0 1 .32-.88q2.09-2.49 1.28-5.68c10.45-.39 21.01-.08 31.47-.75q11.87-.75 23.73-1.42c2.25-.13 5.12.37 7.81-.15 3.43-.66 8.14-1.92 11.38-1.42q.48.08.97-.09 2.92-1.06 6.03-.82Z"/><path fill="#4e4d4d" d="M58.54 262.25q-1 1.61-2.79 1.21l-.04-.21c.83-2.34-1.85-3.35-3.55-4q-.51-.2-.08-.51c1.05-.74 5.31 2.78 6.46 3.51Z"/><path fill="#cc846e" d="M298.21 269.75q2.43.86 3.6-1.01a1.06.7-69.4 0 1 .68-.49q1.44-.12 1.52-1.49.03-.49.21.03c.99 2.92 5.79-3.98 6.78-5.5l2.75-.5q.08 1.66-.5 3.18a.71.63-62.9 0 0 .2.79l1.34.99-5.59 3.39a1.11 1.06 38 0 1-.9.09c-2.23-.74-3.35-.78-5.46.62-2.87 1.91-6.37 1.71-9.07 2.68-4.65 1.66-8.76 3.44-13.82 4.61-2.5.57-4.49 1.75-7.1 2-3.86.38-7.6 2.26-11.34 2.1q-7.3-.31-14.36 1.33-2.58.6-5.41.5-6.72-.22-15.91 1.54c-4.54.87-9.32-1.37-14.08-.73-5.29.71-12.87 1.89-18.96 1.03-3.55-.5-6.68.56-10.25.34l-5.04-.29q2.66.01 5.03-1.04.46-.2.96-.15c6.57.56 10.85-3.72 15.74-7.24q.3-.21.29.19c-.05 1.74 3.91.58 4.7-.5a1.76 1.41-77 0 1 .75-.59c2.3-.81 5.87-6.47 7.07-8.63l1.92.25c-2.4 5.15-5.49 9.49-10.52 12.31q-2.44 1.37-4.53 3.29a.33.32-56.1 0 0 .1.55c2.63 1.01 5.3-.98 8.78-.38a1.17.19 11.3 0 0 1 .04q1.55-1.06 3.11.06a1.07.26-20 0 0 .9-.1l5.17-1.64q1.05-.33 1.07-.35 1.01-1.08 2.26-.38.83.46.87.46 1.51.04 2.65-.91a.99.04-6.9 0 1 .93-.15l2.5-.33a.25.23-84.6 0 1 .24.32q-.22.79.99 1.17 3.35 1.04 5.98-.91c-1.63 2.17 4.05 1.97 5.28-.37q.27-.51.67-.79l2.04-1.43a1.17.88-21.7 0 0 .51-.84c.02-1.32-4.06-.41-4.92-.37q-.33-1.9 1.19-3.13a1.15.91-51.9 0 1 .94-.23q3.05.91 5.79-.74.62-.37.33.67-1.32 4.9-5.55 7.62-.64.41.24.54 7.26 1.1 12.25-4.23.94 3.34 4.28 2.34.33-.1.99-.08.78.02.75-.76a1.22.58-36.1 0 1 .41-.76l3.05-2.99q.03 1.93-1.55 3.02a.75.6-28.3 0 0-.32.75q.33 1 1.39.93 8.18-.48 12.69-7.33a1.37.55-62.3 0 1 .83-.71l4.56-.15q1.77-.06.08.82-1.69.89-.88 2.29a.87.36-32.3 0 0 .94-.16l5.33-3.41a1.74 1.29-52 0 1 .97-.27l1.3.13a.3.13 9.9 0 1 .31.21q-1.14 2.03 1.63 1.31a1.17 1.01-83.6 0 0 .72-.67q1.46-3.59 3.96-6.63a1.45 1.26-27.8 0 0 .34-.88l-.01-4a.89.81 77.2 0 1 .43-.76c1.65-.84 2.01 5.5 2.12 6.33a1.02.93-28.2 0 1-.29.83c-.62.62-3.68 4.88-.05 3.35Z"/><path fill="#d77162" d="M311 261.29c-.99 1.52-5.79 8.42-6.78 5.5q-.18-.52-.21-.03-.08 1.37-1.52 1.49a1.06.7-69.4 0 0-.68.49q-1.17 1.87-3.6 1.01 1.01-3.75 3.04-5.25 3.64-2.69 9.75-3.21Z"/><path fill="#dc1c55" d="M212.04 267c-1.2 2.16-4.77 7.82-7.07 8.63a1.76 1.41-77 0 0-.75.59c-.79 1.08-4.75 2.24-4.7.5q.01-.4-.29-.19c-4.89 3.52-9.17 7.8-15.74 7.24q-.5-.05-.96.15-2.37 1.05-5.03 1.04l-1.75.08c-6.39-.23-12.39 1.96-19.08 1.82q-1.25-1.81 2.77-3.87a1.45 1.44 65.1 0 0 .67-1.85c-.17-.4 3.08-2.09 1.12-1.95a1.69.63-45 0 0-.89.41q-2.39 1.76-5.34 1.38-1.05-.13-.18-.71 1.74-1.17-.18-2.16a.96.63-42 0 0-.83.13q-2.33 1.53-4.35.14a.69.25 32.7 0 0-.78-.17q-.52 1.44-2.2 1.28a1.27.33-44.6 0 0-.88.51c-2.37 2.07-5.08 2.03-7.28 3.67a1.38.81-50.3 0 1-.82.3l-5.17-.33q-3.24-.2-.85-1.89l2.24-1.57a1.2.11-34.6 0 0 .82-.68q.4-1.19 1.23-1.93.46-.42-.09-.48l-7.39-.84c3-3.54 6.29-6.36 9.22-9.97q2.53-3.1 7.01-3.04l3.09-.55q.81 3.19-1.28 5.68a1.46 1.34 67.5 0 0-.32.88l-.02.99a.53.22-5.1 0 0 .57.18q2.88-.32 4.54 1.98a.93.62-47.6 0 0 1.23-.3q1.56-2.06 4.17-2.11a1.39.97-58.4 0 0 .82-.36c2.93-2.65 6.46-8.33 10.96-5.88a1.11.73 16 0 1 .56.65q.21 1.15 1.21 1.55.37.15.02.37-.24.15-.33.44-.26.9.67.14 1.61-1.32 3.76-1.37a1.06.37-5.5 0 1 .82.2c2.12 2.63 3.6-.97 6.06-1.15a1.66 1.24-61.9 0 0 .87-.41q2.46-2.28 5.82-2.19a.97.51-1 0 1 .87.44l.17.83a1.1.05-42.6 0 1-.76.76l-2.1 1.93a.61.47 30.7 0 0 .34.86q1.41.55 2.15-.91a1.17.46-7.1 0 1 .78-.43q4.24-.98 8.33.16a1.89.78-27.5 0 0 1.04-.09q2.09-.63 2.69-2.73a1.19 1.03-3.9 0 1 .74-.73q4.04-1.38 5.18 2.47a.72.44-20.1 0 0 .86.17q1.3-.5 2.78-.27a.99.16 7.3 0 1 .81.24q.67.9.42 2.32Z"/><path fill="#9d8360" d="m53.75 262.79 1.96.46.04.21q-2.24 1.97-2-.67Z"/><path fill="#ce215b" d="M144.52 263.24q-4.48-.06-7.01 3.04c-2.93 3.61-6.22 6.43-9.22 9.97-4.05 3.42-7.49 6.57-12.77 5.3a.6.5 13.5 0 1-.47-.63l.41-1.67 2.19-2.69q3.97-2.78 7.02-6.72a.87.05 84.8 0 0-.03-.83l-.19-2.25a.42.35 79.2 0 0-.48-.39c-3.75 1.37-8.1 6.77-11.22 9.09q-7.7 4.85-16.55 2.57-1.91-.5-1.08-1.56.35-.45-.14-.46l-.94-.01c-2.15-2.62-5.82-.92-7.8.86l-13.74 2.18q-1.18-1.42.46-2.33 9.72-5.37 18.65-12.05 2.79-.03 15.45-.85 9.18-.59 37.46-.57Z"/><path fill="#c6b171" d="M74.52 265.56c-3.37 5.38-6.35 5.79-10.61 8.66a.71.34-37.9 0 0-.4.8l1.18.81a2.09.24-26 0 0 1.85-.65l5.11-2.47c1.71-.83 10.63-6.61 10.85-8.17l1.53.3a1.9.91 24.5 0 0 .94-.02q3.13-1.15 6.64-.16-8.93 6.68-18.65 12.05-1.64.91-.46 2.33l.02.84q-2.63-2-5.29-1.04a1.48.67-28.2 0 1-1.05.07l-3.21-1.6q-.44-.23-.96-.2l-4.26.19q-.18.01-.88-.33l-4.02-1.95q-1.2-3.03-4.13-2.7 0-2.62-2.92-2.18a1.11.51-12.1 0 1-.99-.22q-.69-1.18.72-1.37a2.78 1.48-16.3 0 1 2.12.44c4.97 5.02 12.57 4.06 16.23-1.83q1.12-1.81-.87-1.66l-4.01.3a1.51.98 12.1 0 0-.84.32q-1.15 1.03-2.42 1.85c-1.18.77-1.87 2.08-3.63 2.49a.43.26 87.8 0 1-.31-.47l.06-1.49a.77.38-88.2 0 1 .4-.75l1.74-.01a1.16.65 9.2 0 0 .85-.31q.69-.9.15-1.97 1.04-.35 2.07.09a.83.69 32.6 0 0 .86-.11l.76-.75a1.53 1.02-61.2 0 1 .81-.42l5-.54a.49.39-9.6 0 1 .5.27l.06.18a.29.16-10.4 0 0 .3.1q4.98-.75 9.16 1.28Zm-19.44 9.39q1.86 1.52 3.46-.14a1.79 1.18 8 0 1 .9-.43c4.82-.85 7.58-4.42 11.24-7.03a1.07.48-32.3 0 0 .56-.85q-.27-.95-1.24-1.26-2.11-.69-3.25.79c-2.28 2.95-8.2 8.64-12.31 7.54a.81.5 15.8 0 0-.88.25q-.3.9.69.66a1.12.22 40.8 0 1 .83.47Z"/><path fill="#f4db7d" d="M82.5 264.54c-.22 1.56-9.14 7.34-10.85 8.17l-5.11 2.47a2.09.24-26 0 1-1.85.65l-1.18-.81a.71.34-37.9 0 1 .4-.8c4.26-2.87 7.24-3.28 10.61-8.66q3.58-1.64 7.98-1.02Zm-28.25 9.94q-.99.24-.69-.66a.81.5 15.8 0 1 .88-.25c4.11 1.1 10.03-4.59 12.31-7.54q1.14-1.48 3.25-.79.97.31 1.24 1.26a1.07.48-32.3 0 1-.56.85c-3.66 2.61-6.42 6.18-11.24 7.03a1.79 1.18 8 0 0-.9.43q-1.6 1.66-3.46.14a1.12.22 40.8 0 0-.83-.47Z"/><path fill="#efcc7b" d="M55 265.46q.54 1.07-.15 1.97a1.16.65 9.2 0 1-.85.31l-1.74.01a.77.38-88.2 0 0-.4.75l-.06 1.49a.43.26 87.8 0 0 .31.47c1.76-.41 2.45-1.72 3.63-2.49q1.27-.82 2.42-1.85a1.51.98 12.1 0 1 .84-.32l4.01-.3q1.99-.15.87 1.66c-3.66 5.89-11.26 6.85-16.23 1.83a2.78 1.48-16.3 0 0-2.12-.44q-1.41.19-.72 1.37a1.11.51-12.1 0 0 .99.22q2.92-.44 2.92 2.18l-7.91-2.6q-2.21-.73-1.87-2.7l.22-1.29a.95.31 33.2 0 1 1.09.29q2.93 2.09 6.25-.23l1.08-.24a.92.82-24.2 0 1 .87.27q1.5 1.89 3.1-.04a1.23.46 4 0 1 .9-.27l2.55-.05Z"/><path fill="#e71a50" d="M117.65 276.56q-2.89.52-4.9-1.1c3.12-2.32 7.47-7.72 11.22-9.09a.42.35 79.2 0 1 .48.39l.19 2.25a.87.05 84.8 0 1 .03.83q-3.05 3.94-7.02 6.72Z"/><path fill="#efcc7b" d="m263.71 274.75-3.05 2.99a1.22.58-36.1 0 0-.41.76q.03.78-.75.76-.66-.02-.99.08-3.34 1-4.28-2.34c2.11-1.24 3.33-3.14 5.63-3.63q1.68-.36 3.39-.19a.75.62.1 0 1 .65.54q.07.5-.19 1.03Z"/><path fill="#f2655f" d="m94.04 276-.04.25a.6.37 88.2 0 1-.22.38q-3.64 2.11-7.54.23c1.98-1.78 5.65-3.48 7.8-.86Z"/><path fill="#cc846e" d="M112.75 275.46q2.01 1.62 4.9 1.1l-2.19 2.69c-2.65-1-2.82 2.16-3.21 3.71-5.86.41-9.3.37-13.34-2.69a1.86 1.77 66.2 0 0-.89-.37q-12.73-1.55-25.5-.02l-.02-.84 13.74-2.18q3.9 1.88 7.54-.23a.6.37 88.2 0 0 .22-.38l.04-.25.94.01q.49.01.14.46-.83 1.06 1.08 1.56 8.85 2.28 16.55-2.57Z"/><path fill="#f4db7d" d="m235.46 280.3 3.58-3.8c.86-.04 4.94-.95 4.92.37a1.17.88-21.7 0 1-.51.84l-2.04 1.43q-.4.28-.67.79c-1.23 2.34-6.91 2.54-5.28.37Z"/><path fill="#d77162" d="m128.29 276.25 7.39.84q.55.06.09.48-.83.74-1.23 1.93a1.2.11-34.6 0 1-.82.68l-2.24 1.57q-2.39 1.69.85 1.89l5.17.33a1.38.81-50.3 0 0 .82-.3c2.2-1.64 4.91-1.6 7.28-3.67a1.27.33-44.6 0 1 .88-.51q1.68.16 2.2-1.28a.69.25 32.7 0 1 .78.17q2.02 1.39 4.35-.14a.96.63-42 0 1 .83-.13q1.92.99.18 2.16-.87.58.18.71 2.95.38 5.34-1.38a1.69.63-45 0 1 .89-.41c1.96-.14-1.29 1.55-1.12 1.95a1.45 1.44 65.1 0 1-.67 1.85q-4.02 2.06-2.77 3.87-2.54-1.81-5.4-1.57c-4.41.38-9.23 1-13.58.16q-12.58-2.42-25.44-2.49c.39-1.55.56-4.71 3.21-3.71l-.41 1.67a.6.5 13.5 0 0 .47.63c5.28 1.27 8.72-1.88 12.77-5.3Z"/><path fill="#d3d3d3" d="m175.75 285.04 1.75-.08 5.04.29q-3.43 1.03-6.79-.21Z"/></svg>